<mxfile host="Electron" agent="Mozilla/5.0 (Windows NT 10.0; Win64; x64) AppleWebKit/537.36 (KHTML, like Gecko) draw.io/24.7.17 Chrome/128.0.6613.36 Electron/32.0.1 Safari/537.36" version="24.7.17">
  <diagram name="Page-1" id="yxcPFy3V-XOezokm2rDv">
    <mxGraphModel dx="993" dy="660" grid="1" gridSize="10" guides="1" tooltips="1" connect="1" arrows="1" fold="1" page="1" pageScale="1" pageWidth="850" pageHeight="1100" math="0" shadow="0">
      <root>
        <mxCell id="0" />
        <mxCell id="1" parent="0" />
        <mxCell id="io_0k-Pldrt4p_tzGIHd-5" style="edgeStyle=orthogonalEdgeStyle;rounded=0;orthogonalLoop=1;jettySize=auto;html=1;entryX=0.25;entryY=0;entryDx=0;entryDy=0;" edge="1" parent="1" source="io_0k-Pldrt4p_tzGIHd-1" target="io_0k-Pldrt4p_tzGIHd-4">
          <mxGeometry relative="1" as="geometry" />
        </mxCell>
        <mxCell id="io_0k-Pldrt4p_tzGIHd-6" style="edgeStyle=orthogonalEdgeStyle;rounded=0;orthogonalLoop=1;jettySize=auto;html=1;" edge="1" parent="1" source="io_0k-Pldrt4p_tzGIHd-1" target="io_0k-Pldrt4p_tzGIHd-2">
          <mxGeometry relative="1" as="geometry" />
        </mxCell>
        <mxCell id="io_0k-Pldrt4p_tzGIHd-12" style="edgeStyle=orthogonalEdgeStyle;rounded=0;orthogonalLoop=1;jettySize=auto;html=1;exitX=0.25;exitY=1;exitDx=0;exitDy=0;entryX=0;entryY=0.5;entryDx=0;entryDy=0;" edge="1" parent="1" source="io_0k-Pldrt4p_tzGIHd-1" target="io_0k-Pldrt4p_tzGIHd-11">
          <mxGeometry relative="1" as="geometry" />
        </mxCell>
        <mxCell id="io_0k-Pldrt4p_tzGIHd-1" value="" style="shape=image;verticalLabelPosition=bottom;labelBackgroundColor=default;verticalAlign=top;aspect=fixed;imageAspect=0;image=data:image/png,iVBORw0KGgoAAAANSUhEUgAAAJMAAABWCAYAAADLwKQSAAAAAXNSR0IArs4c6QAAAARnQU1BAACxjwv8YQUAAAAJcEhZcwAADsMAAA7DAcdvqGQAABQSSURBVHhe7Zx5bFfVtsdXf51bSkvLTJlFQEZxZhI0giCDPBDFKZo4RG9MzNWbaKLm3pgY3/vD+PKu8+PKRVRQeYKioijIDAoUFCyglEJpKUNLaSktnXjns9pdDuf9+ivl/aCnt/ubnPx+Z89nr+9ea+19zt4RZx2IhUUYEKj7tbD4f8OSySJssGSyCBssmSzCBksmi7DBkskibLBksggbLJkswgZLJouwwZLJImywZLIIGyyZLMIGSyaLsMGSySJsCPoJSnV1tezevVsOHjwoERERdaEWfgOiS0lJkeHDh0t8fHxdaPMhKJn27dunV5cuXSyZfI7jx48rkW644Ya6kOZDUDJlZGTIyZMn5aabblIt1RCCZFVYAl4eBAIBHfQ5OTly++2314U2H4KSafv27XLixAlle1VVVV3oOUAWrsjISAlEOG6Xizs1NTX1V0NkswgP6P/s7Gw5dOiQTJw4sS60+dBkMhkiFRcXS+buTNmXlSXFRSeluqpa2iS3kfRu6TJ40GDp2LGjpoNUFpcGLZpMNL68vFw2bNggK1evlNLqMoluGyNRMdEOcUSqKqulsrRCIstFRgwdIRMnTJTUtNSQptLi4tFiyUTDcfYWfrJIMrMzpefQPpLeJ13atkuW+MR4ja84U+FoqWLJP3hY/sjYK20DbeTee+6VAf0HWEJdAviNTBe0zkSjccjnzf+n7M7dIzdOGy1XjxohndI7S0Jigpw6WSJ5B3LlxLFCSUxKlAFXD5SxM8ZLTYrIP/75D3USIyOj6kqrBc4jlxcNhXuBCY2KitLfxkAaUy7XheSxaDoalRodX1VZKV999ZVkFxxQknTp3kWd6zNlZ2Trui2y4D/ny5t//S95629/l2ULlkr56TJJdjTWyEljJKp9rCz6bJFqOkMS8paWlsrp06f13sAdHkRh1oNyTp06pWthJSUl9eU2hDNnzqiPx4DgP4OjsTwWTUfIHkWgjP7de/bIpozNMnTMcEntmKbOdiAyINs3Zsh/v/K2fLPwK8ndnyv7ftsn3326XMpOl2ve6OhoGTHuWskrypf169aqABEkxHrzzTfltddek/z8fA2jnp07d8rLL78sCxcuVPNKeqNVSMPFPb+o9g8++EAXVk24O6255/ruu+/kxRdflBdeeEGee+45ee+999Rke8vnFxDGvSnHC297QKg87vSmDhCsHMB/E+dOT7g7zltPcyMkmWgsIzkjY5vEto+THlf0lBqHSCwFlBSVyMrPVzjmLU/GTb9F/vzvf5E//8dfZPpDMyQmJkZqztYuDySnpkjvYX1ly46tSiJIg4b48ccf5f3335dff/21vpMQ+oIFC+Snn35SH4swftFURUVFqo0gKeUyW5w0aZJ07txZ01Q62hMCotnQQiY/YN0MUztmzBgZOHCgLFmyRObPny8VFRWajl/ylJWVaR7KR+PRTso05fDLxSSE9pDGkD5UHsonnDzkNeHURxh1034TDswzk96EUS4X+aiLtvsJ5zsyHsB+RvD+3GxJd4gUFR2lWonwQ/tzJCfroKR0aCdT7p0mA4YP1A7tP2yAaq2zNbVmim7o3KOLHN3jOOV//KEkAO3bt5e+ffsqmRAynY2WueqqqyQpKUlJQyfu3btXvvnmG8nLy9OVXhbnRo8erSTPzc2Vnj17KoG++OILTb9//34pKCiQsWPHalqIDYH79+8vc+bM0f88088//yx7HI37yy+/qIBo2/XXX68EXbVqlXz//fdax4gRI2TatGnSrl07fT7a8+WXX2pbU1NTZcqUKfo6gzxcEIf7O+64Q9LS0uTo0aOybNkyrQfSXXvttTJ9+nRtJ21GM/O8lHPdddfpM0B+4mgnfTRr1ix9G7F8+XIlHnlo28MPP6yy8Asa0UwBOVF4Qo6fLJDO3TtJTXXtmhEPXHi0QLVTWvtUdcQrKyr1gnBmJAEEkOJoJ4kNSO6hXIkMRNb7Q6NGjdJOPXz4sOzYsUPN4tChQ+tHHOnovB49eqhAu3fvLu+++66SgI7++uuv5ciRIyrAzz77TBYvXix9+vRRgqH1EKDpbEY4JKOuwsJCFSD/33nnHdm8ebMS4Morr5S1a9fKW2+9pXWNHDlShUrZPNOBAwfk1VdfVWJDOojP8/3www9aH/lvueUW1bqff/65xqFtV6xYIbfddpvGUS9ahTrQMDNmzJBhw4Zp+ZANUr/++uuqqciDX4hLgJZauXKlzJ07V2JjY5X4iYmJ9X3pBzRCplrntdy5EpxZmhsQp6qqRmLj486z696H4z4mLkYiHJlipsxquWoxR1vwonLdunWybds26dWrl6Snp6umIB8djGa44oorVAB0HgT47bfflHCUQTou2jB+/Hi5//775e6771YNmJmZqWUQjwbER3vllVd0Oo0mQEtRJhpr9uzZ2h7IRDseeughLQvSrF+/XrUBhEeoTz75pOZHY0B+NGfbtm2VXLQfQqOlIDzPTB9CIggwdepUJQOEps0dOnSQyZMn6zIMxN+6daumf/TRR7VNtAFtyLOQnvoee+wxufXWWyU5OVn7wC8ISabzcE7ZKGJiMR8Bx9kuk+qac7bbrZXcOEu4ZxAlJCSoiUOj0GF0qCGmKYdZJKMe1Y9AIREmkV+TFrIgrG7dumkYpq1NmzY68g3i4uJUcIMHD5Znn31WhUo+zAfh5DPaCzJRHvFoKOqCRGhBzHPXrl1ViAgf3wZThj+4evVq1ZYQn3zEo13w0+bNmycvvfSSfPrpp0qmBx54QMkGwZl0MJgYRMeOHdM68AWpg7bRT7QLM0/b0OAN9XNzIiSZ6EwEE+tcZafOCQbnOrVDmiSltJUixwzmH8qXQFTtrARTSD4DHrqivEIcxklCm4T6OH6Ju+aaa9TnQUMgaDoUIFwEtXTpUhXGM888o9qCTsaseUFZXEZbGZh6Bg0aJE899ZQ8/vjjal4RKGnRTsRDGIREOxAy7eAekgAEivaByJCFfuF5ISl5MK34Qvfcc49qlSeeeELD0VLPP/+8PP300/oczEDRMpCZ2eUjjzyiRGVCgBZD22Da6RPq4BdNRf20k/Z6n9EvaJRMKe1SpH1ymhzLPaKOtYY7znWPvj2kV//eUnikUJbOWyy7MzJl19ad8sUHS6Ss1JkVBWpHToRDipKiYolw5I/moEwuM/tCM+A/0OF0GEQhjjQQCmExWvFXcGR37dql4XSoSWfKgxAG7nvqQeuYy+SjDOrjP6AuTBF1oGHwfTBhQ4YMUW3EL2khBJqE10osUdx8881qOn///Xctm/YyOYAEpGN2iqbDBBoTh59FGgaHmZRAFvwn2vjJJ59o+WhtNBVERNOaweZHRP7VQd3/emBOeCA6kIfPyc6RrJws6TWgjz4wHRobH6vXoawc+WXTDvlp5UZZ+/UaOZKbL+Omjpd4hxiki3AImJ25XyqPlcvkiZNVYHQKdeBjoLbpLHwnhI9zC6nQWKh1/q9Zs0YvNAHmA2cZIaA1+I/GQKj4PJSHQCkH4RHGJxoIk9kSZQAISX60HwI09fPMaB7IhDBx/vFbMDfM6JjBYc5whvHDaM+ECRNUq5CHOEwy6SEAkwCWOwiHbPhgmHPSskTBc9FP1NG7d2+dAaKRcNrxu+hvNDKzOmaQtI9yzTOg1dBk+JXNjZDv5hilNBin8P2P58nwCddIj349dXmAh2Rk796eKRtXrJdjeUdVUP2G9JdJc+6QOMcxp+DS4hJZs3iVjBk2WmbOmlk/sshLGVxu0Bwu6gXE02GoewQJuU28uwz+A5MvVJyBty5AekiFqYOUkMLUacrD1NE/mDFIiDmkDjQOpILckFfNvhOOsLkIg5CUgdaiDDQjBKIsUwcgDlITh/9HOe5nApTfol700rF06scffyw7snfK2H8bJ0nJSUooEOn4SvwvPVWqDxefiEaq0e+cqp2H3/ztBpHj1fKnJ/+kHWMEazrEW7033N157rT8J9ydDgS7D5YfhAp3x3nj3eQz8e48oKnhpl9AQ3EmjPzAb2Q6f6gGAQ1nZE6dMlU6J3SQdUtXS8GR2lcR+FA43DxkUtskfenL8wYCtbOcLT9skuKDRTJ71mw1Ze4OM53qhTec/+TjMnEm3puuoXtvnEGocHedXpg4d7w7z8WEu9FQHOEmvx/RKJkA2imtfZo8eN+D0jWxi6z7n9WSuS1TThYUqdmCVDjapDtVfEoO7s2WdUtWS+nBEnlwzgOOjR/wfzrM4l8PTf44rsTxgXAm12xY60x/IiShfaLExMeodqo6UyllRWVSXnhaBg0YJJNunyRdu3TVpQQ/j6iWihbnM3mnosZu42zu2rlL9jozlMLCAqmqrpKU5BRdbxk6ZKh07dZVH9ZqpEuHFk8mAKHqL5bGz/mK9RoIEgUp2iKMaDFkYjrOVqdgZPLCaCtLnssLyMSLctaffEsmXmiyOsuiIssCFv4Er1ZY/GUNy7dkYtUWQrHAxkq40TwW/gKaiUVPFkNZWW9uhPSZeP1wIWbOonlgfCZeHfFKp7kHfUgy3XjjjZZMPobxmVrECjg8s5e/Lz/hglbALSwuBGFZGrBoHjCby8rK8vfSALM5PmTn2xk+lbCzOf8BsUEmPnnBd/LtkTqQiQ+5+PCLqaclkz8Bifi2ChH6+nwmGmnNnL8BmXxv5szSQEPv5iz8AbPO1GI+jvMT6DzzlSP+gvcz3EsJTD2f5zZUJ+2hfa0ZLYZMCJHdrizSsSEBvw7teTn8OeqgTnaasNrsrRPlzoSFvX9BFH2rwSUjEx2un/Y6l9Ei5jIwadz/ucwoN0LjP8RhAyMTA+75QI+t16T3CtcgWLi7TgNvGPe0wbSb+vi4n63i7CY2aQlnJwn49ttvtT18beotv7Xgop460ums2MhoiYl0hM4BqUHALJDvwJm6Mpp5s83oJsyMXpYd2HXCPV8nEMc96dl7hmAQLEJjhwz+Afv52RHCFiT2tZGWeC8oM5iWoF0Qwx1HGO0kDCLgJ7INHV/EtJcdJ3feeWf9+QKkY5LCNiqIzn+eMVidrQUh982x78z9pSTjPOAI93hZiWQWHJKjpUUSGxUt8VGx4oiuNpEDfAv2jnF4A6aB0zvYL8fMg5HNHjDu2ZfGBUEgCgdEsBeNzZZoHrb4sA8OElIW++jYNYsgaRdkYv8ce+PMRAHyIVC+esAk8gyEAfJRz6JFizScrVOkZaMl6dn1C6nZRcxeN/atQRZ25VIGbaIN5CX87bff1u3rmF82ibItiveZkPtykIrn8dO+uaZpJqdDs04ckb9vWSp/WzdXXt4wT+ZuXy5HTxfVCwzQmUxX58+fr5/3csgDGwc5zAtfB8GTBnJxtA0CZB8/QiYfhOGzCnbOso+fUU84JMT0kJ9dsAgWs+eecdIONBonm7BR0itUtl+b3biAsiEqZVAeeT788EPdMzhz5kxNx+FjCG3jxo1KItrL+Qec+cThFbSFZ0PDtWZcMJnQSOVVFbIwc5XsK9oro7t3kKs7JcuW/B2y7PfN2JXzCIUQ2fp933336ecRmCW0iTuN+U9a4jp16iR33XWXfpvD+UYIBzNmzBDfV5GWi02L3ENC9zdXlANRmSpTFqPXgDi2XLELGJJAIDQhIxvyUMamTZuU+JxAwnkADASWStDWxpxyiARhnLbCs3G+AFqN8lszLphMfOt9urJCMo7slZ7J8RIXGZCkmEjplBgpPx/eI9WOAjhHk1pAJkZ7sE52k8qATZpoJDQLe/UQHlrATTo3uCfOWxb3qH0OwvCCMjl5BZIyA4M8mFLIDmHRVJyJgBmmHRCcX3wnUxfko128bgI44TwrWrM144LJhBhxthOj4+Sk4ziDKkeYxRVnHFLFO51cm8YNI2SjTcw5A2gLLpxshMR/QxST1n1PPjSRWQrgIh9CxcSY7dtu4GRjmrwgHeYSv+ejjz7SE0lYnMXBhhSYQRxvtCG+HxoJkjAoTB2kJY5Pm/mFWDjskK4148LJ5HRkUkycTOk3UnKKK2Rrfp5sPZwnpRXRMv3KkQ7RYNM5gdKxdLIbOMr4GRzYwOkeHNqAiQKkR4BGYGgz7gnHUeY9IXmNv4UvBaEghjE/AKKRB/+L01W8WpF7ZoM4yvh01M8hGQBicNwOfhh+ExMCDpjgi1M0D2mpH1OJWeSkEo4kxKfCXBJnBlBrRJNmc2imXsmdpE1MojOTq5TU+I4ye8A4GZU+SM2goRIdislAY3DSmTF1CASNwUlxaBlOH+GYGuNvoKEwTYx8IzjiMDvk42gaymPWxAlvzNZwgDGNpp3UzX8cdv7jH3kFjKZhpojvw2lzvIMkDUTGdNEOiM7ROrQR/4n0PFO/fv3UJLI/kAkEz0J9kItngdzkvxygHj/N5pr8bg7SBDh76axzRThZnV/dsesxcjyoEaypgjD+Qwy0AMflADQJaYl3p0fjcE84s8I33nhDtci4ceP0bEtIhYPvzmNAHkBcMFAf5ZOP+g1MOxAQz47ZM+02v5RJXjQn6SCaGTAN1XcpQBv89G7uol/0QirgJZEbZrS7QZg73B3vTe++R5BoAn7xk+hE1pjMDC8YgtXvRqh46gHEhyrflBGqnksFv5HpovUxJApFJBCsgwkzmsQbH+qePKhyDsRCC2AOQxEJhIoDoeKNlmms/MbStCZcHuMeJqAlMUkIj/+tXYhoRUA/+KEvGjRz+Cg4pow8C38CM8eXCqyZ+fZLS9Z/eFfF6Dfst/An0NSYf95vNjeCkgmwjsMVykm1aH4wk2SZwg+DvkEyWVg0FS3KAbfwNyyZLMIGSyaLsMGSySJssGSyCBssmSzCBksmi7DBkskibLBksggbLJkswgZLJouwwZLJImywZLIIGyyZLMIGSyaLMEHkfwE7DAcd0M855wAAAABJRU5ErkJggg==;" vertex="1" parent="1">
          <mxGeometry x="70" y="130" width="147" height="86" as="geometry" />
        </mxCell>
        <mxCell id="io_0k-Pldrt4p_tzGIHd-7" style="edgeStyle=orthogonalEdgeStyle;rounded=0;orthogonalLoop=1;jettySize=auto;html=1;exitX=0;exitY=0.5;exitDx=0;exitDy=0;" edge="1" parent="1" source="io_0k-Pldrt4p_tzGIHd-2" target="io_0k-Pldrt4p_tzGIHd-1">
          <mxGeometry relative="1" as="geometry" />
        </mxCell>
        <mxCell id="io_0k-Pldrt4p_tzGIHd-2" value="" style="shape=image;verticalLabelPosition=bottom;labelBackgroundColor=default;verticalAlign=top;aspect=fixed;imageAspect=0;image=data:image/png,iVBORw0KGgoAAAANSUhEUgAAAN8AAABYCAYAAAB1TCJMAAAAAXNSR0IArs4c6QAAAARnQU1BAACxjwv8YQUAAAAJcEhZcwAADsMAAA7DAcdvqGQAABxPSURBVHhe7d0HsF5F2QfwJ52E9EZCEkIJLSEgvZeAiIKIiAoiHWYUC6hjGXFURkcsMIN1HD+iAn6KBBEUiAqEIlUhdDQkoUMgJCSEFBLSvve3yfKdeefeEBLufW9u9n/nzD1lz7PP7j7/fZ7dc949HVasWLEy3gYdOnRYvVdQUPBuoePq/wUFBa2MQr6CggahkK+goEEo5CsoaBAK+QoKGoRCvoKCBqGQr6CgQSjkKyhoEAr5CgoahEK+goIGoZCvoKBBKOQrKGgQCvkKChqEQr6CggahkK+goEFosd/z1eTG7NmzY9myZavPFBS0LXTs2DEGDBgQXbp0WX2mddEi5Fu5cmVMmzYt/vvf/yYSFhS0RbDTbbbZJsaMGROdO3defbb10CLke/PNN+Nvf/tb7LzzzqlnUciCgraGN954I+6+++445JBDon///qvPth5ahHxLlixJ5Ntzzz2jb9++DfF+HTvUhrM1tau66wRW1orrr2DjBrtYunRp3HrrrXHwwQcnJ9HaaNEJl2TsrbyJ422LlyyO1+a+FrNeeSVmznwljT8XzF8QK1auSNdr2jV5f9k2rq2RaFHPt8cee7Sq5+vUqVO8/vrrMeW/U+KhRx+K6c8+GXPnzolly5ZHj56bxrAhm8fOO4xN4fCwYcMSCRvhlQsaj+z5brvttoZ5vnZBPvoh3rSp0+K6G66Lqc9PiwHDB8awUSOi94A+aTC9aMHCmPnczHhh2rPRbUW3eN8hh6dYv1u3brF8+fLVkgo2FrQF8rWL53w82OTJk2P8ZeNj5tJZceBx4+KgY8bFqLHbxpBhQ2LgkIGxxaiRsfu4PeKIk46KoWOHxzU3XhtXXHlFLFi4IDrWiNuaeKed2fog59WaeRasHTZ48vFqT06fHldcdWX0GNE7Dj720Bg0dFB06Fjr2d5cGk888kTc+tdJcfv1t8Xz059Lz3R23X/X2PvI/eLOB+6KiX+fGCtqnu/tjNN13rWazvGq8eM7Q/1Ygwzl8D/vk70+oKeNV38n45tcTjrkbV3KWPD26PTtb3/7/NX7zaJqcGsDDT69RojNN988NtlkkxYb2DKK+fPnxx8nXBmLuy+NfY/YLzp1rhGk9jd/3vy4evxVcfX/TIj7bv1XPHDn/THtsWmxyz67xKa9e0af/n2iR9+ece/t98aIocNjyJAhzeqp/C+++GK88MIL0afPqjBW3o5tQuu1IQs5QvKbbropjU3VDznOTZ06Ne655570f+HChanehMTrAvmQ//e//z1tjh966KGYN29eGus21550ee211+Kxxx6LJ554ImbMmJFCsx49eqQytyeoA8OhZ555JrbccstUxtbGBt2lMZbHH3s8npzxVIzdd+fo3K1mILXhJRLdMfG2mPiH6+P1116PsXvtUiPdrp48xPJlq8Z3K5avSKHowK0Gx40335iMjLymgFjPPfdcXHTRRfHAAw9E165dk5H+5Cc/iUmTJqU07uVVGSniSOOce/Oxfc9Ab7/99mTgriPeH/7wh/jGN74Rf/nLXxIxf/jDH8bvfve7JJeRuA8RyamSvJqn6zlP2x133BFXXXVVDBw4MLp37x4vvfRSzJkzZ/Wdke4jL99Prv+PPvpo1Drk+PnPfx6/+MUv4otf/GKSQ2+65Lxs9jPy/eS5lvXIemfdwP9q/tXOgAyb9K61Z2ywno9Oi99YHJNunRTLuq+IHfcYHSuWrUhGMPvl2XHNb6+Ol56dEcef/Yn45LmnxF7j9ortd9kh+g8ekLwjnTp3qTV0jbDTaqHp1ltuHYMHDW5ycsi5wYMHx+OPP54eyu62227x17/+NR555JE47bTTkjd59dVX4+WXX06PNIw/GbpBPKP/17/+lcjqQa7X7RAWKXbfffc0MTV+/Pg45ZRT4rOf/WwcfvjhsdNOO6VyePvCfx7ovvvuS3WqPnv27JkMeO7cuSlPeekUXnnllejXr188//zz8fvf/z51KEceeWRstdVWMXTo0KRn7969U5mefPLJ+Pe//530QiwRhGveSqL/17/+9VQ2HvSaa65JuooOnn766ZSXN5jIzw+n6UgWT0IGWcpKb4SeNWtW9OrVK3mYxYsXp86HN5YvnRFNRySSkCcZog31VCX5uwX202jPt8GSj1HOrRndjbfcFCN2Ghl9B/V7i1BPT3kqbrnm5ujWvVt88pyTY8BmA2tl6Bh9B9TCwxrx/h+19B07xQvPPB+bdto0xowe3ezMpx6c8d5yyy3JOBngxz72sTRThggIxlMwGoYlHWLYF046FrJuscUWyfNtttlm6bWmn/70p4nYn//859N1Rujatttum4xOPUojP2T33zVpcp7ymDJlSsqDwQtbhZvIwOtJ65ihyxMZfvzjHyddkfDGG29MxEUwHv7hhx+Oo446KuXjLRBy999//6QfIt5/fy2Er5HvrrvuSoTaeuut47LLLkseMpNG2/Pk7nVMvxEjRiQZ0l199dWpk7j33ntTHvQSFvO4OifpFyxYkDoiZXi3bagtkG+DDTtV3hs1z/fqvDnRZ3BfsWa+EIvmL4xFCxdFn359ovumm6aGs9V7Nec22bR7dOnRNV6d/eoaOxmk5ImOOeaY+NOf/pQ8yQc+8IEkw30MBzkYEa/h/6WXXpoMzvH222+fvJx00ud7GD0DE2YhDh2znmQzVB7uc5/7XHz1q19NHlb+2VvJc4cddoivfOUrsd9++6WwddCgQck777rrrnHiiSem42effTZ5SN7qiiuuSJ2Jez7xiU8kHZAwlwUZePk777wzeXhjWjLcc+CBB8aZZ54Zn/70pxOpJ0yYkMiOSLyi+uHByUH497///fGlL30pzjrrrOSBEfe6666LQw89NJ1H6okTJ8Z//vOfdI98lU36E044IZGivt3aCzZo8iHE4jeXJA/XFFbW0qSBXnOo8bVTl07JGy5ZsjhN1DQH+TEKYRGPJESSv/MZPABjGjVqVIwdOzYZGwJst9128Z73vCcZKW+Uxz7uZ1i8eD3IRS4e4KCDDkr3ezmAfJMyvALIAyHkKS8EsgnleBnk5znkKR+Ef+qpp2LcuHGJtEi61157vRWhyFeI+Jvf/CZ5XCEgIvAOZNDpz3/+c+pYEIVX0yEgpue6OoDhw4cnYgoZ//GPf6RXuNQZL4lk5OtQPGObOXNm2lev8qZzLq8wl870ao/YYMmnQRhDl85dYunipavP1lA7371nj5rH6xHz574eixctrp1cRUINWSULmHhZsXxldOnaZY3vfLpXmPXPf/4zeTJGyQiRJ8vctOZl7Wdj4THoKE0+V/3vug0ZpMmklBdj5QkRNPf+jhl5Ji3k8Z9r8ra5Tr40eT8j3ye8tW+zn/N2zKufe+65ccEFF8R3v/vdOOywwxI5haPCVcQ++uij3wq5dUR0Vhb5ORZKn3/++cmrIxkvxyu7Jj/l44Xdc9xxx6WOQOcmH/XomjK1Z2zQ5GOIfXv3jQWvzV99dvXkyOaDY9Dmg2LurDnxwD/vj+WrDfOFp55PkzSZLMlw3lgSS5e8mYygaqRVMCwTCsI1vfupp54aH/rQh1K4JOxzPRt7RlPH1c01hsaATXwYF4JzvIDxHGLxIA8++GCapGC4xnfOIWR9HuBc/p/3IadVTh5FfjwOz0W+UDN3HIjBe/F2vFcmprRI8ZGPfCR5OF4QYap5ZpDn3s985jNx8cUXpzGgPBEbuXjx008/PdXlBz/4waQT/aoy2js2aPL16t0rRg7dIl56akZ6qA48mQmWPQ/eO4WT11725/jthePj0ot+E5df/NuYN2dedOy0qtiM7fW582LZ60tj21Hbxco6QwZpGNgf//jH1KvncYhZRAaKkLxgNtAqMsnXhA9/+MMpzPrZz36WHjfwFt/73vfSpIxxIJLzjN/61reSxzVBYDKEAWfi1RtsU8d5I9NEkTHgN7/5zTRhIxRF9AzpeJ3seR3LCxl1NBdeeGF8//vfT52GcteX3bHOCumkM4ki3BYWKyviyfcHP/hBun755ZenWWKyNyZssLOdZJI9v2b4kx98IIZtMyy6btI1nUfEocOHpp8PTXt0ajz270fiiYenRJduXeOgow6Jnr1rhlZTSdopD02Jzgs7xNFHHZ16/HpdlT2HdLyUsZXyGUcZ43mcgISm1l3LBup6PiYXYU3YuEd640Dhm3S77LJLmrLnLaQ13hHq8VJmWKXnZYyZhGh+qsXAcx7Gfe5DLPtmKdW9SR4TJdLylkI7eZJJLwR2juHzPHvvvXfKw/3kkpehXtxrttZ4k25Cz3333TeVy/3yE26qKxtPTW9hpgkW79LyhspOtjEwHUxOkaE96eZ6fiTSUqCfDqWRs50b9IvVjJzhXDL+kljeb2Xsdfi+6TxDYXAL5y+MGc+8ELNemlUrQ8cYssWQGL7ViPQ4gvfzHPCe6+6KE489IQ7Y74DkNWv+IcmoB2NRjuo4hMHLh2eki01YJv/mjt3vP1lIDGSQJS3IK3sdde9azjfvN5VHlpPzgCwTAaRxTVgrfEV4neS1114b55xzTupcIOtZ3250cY1e8sp5NJWf6/JUN0Av95Eprc21+rK7R7pcNy0FZZFn+VXDekAjTr5/cvzuyv+NrfceFTvuMSZ5NXkimMb1VosypH2GU7tn7qxX4/Zrbo2dR+4Up55y6qoJl5pxNhK5npvSY03X3gnIQT7hstBTj8/4PNw3hl6btiJjbfVojTKtC+RdyLeeoJtt0s2T4vobb4ihY4alt1169K6NiZbV9dw18tHl+enPxiN3PBQj+g6PM047PVV8S/e0bQmMneFlj4V06rARJGgU2gL5NtgJlwwGYxt36Lg44bjjY8HT82LShJviwdsnxyszZsbi2jhKJZtomVob991yde3aTZNjj+12j7POOHOjIx4wPIQzyWKctbERr62g3fySnY7Cyhkvzoj7J98fU6dPjZfmzIwFi+bHshq5GNmAXv1jy81Hplm30aPH1Ayw60ZHvIJVaAuer92QL8PgXX4mYrwytmjRotrx8ujatVv07bfqNSkzbEKu0ttvvGgL5Nvgw8565Fk6JBs9ZnTsudeesfc++8Suu+0aI0eOTOGWSi/EK2g0WtTzeW7U2p6voGBtwKY96vCri3YVdiqUn5N4SRaKlyloi/BM0Zs43lZqN4vmIp+fonhbIT+cLihoS2DTNr9LfN/73td+yFcNO72SVMhX0NbApnPY6X3TMttZUNBKYNNltrOgYCNFi3o+v5Aunq+gLSJ7vnY324l8fmjqd1t+olLIV9DWwKY9E/YDX0tqtBvy6VEssZB/HlLIV9AW4YULP4T2u0QTg62N4vkKNlpwDO3O8+Uxn19ct+VHDfnh/9qWT/qctv7FgeZkNPWCQVXGO63bRqC+3Ourc66TdypnXe9rCmR41NCuP46JeG11y2jqWlNbNW29IVTTVTeoN5bqtWratrpV9azur+uW0dS1NW0ZTV1bly23YaPQLh81MHY/En27HtLY1KB7baCxqi9k557TeibN/SxJGumtzWL1MXllGfXy3imUz0+oWhrKQO/8wjqd1xX0pXcuf7UM+dqaIO/1qbO2hg36K0VNga4W5rEsngkfPzGqRyaFcamlFCxqtCZDZhSWWBeieGXOONay6FY0s9y5X0vk91irUA/useq0VaEtH+/bBRYL8k6h0NyCQh7HrG0d0Z1cC88yYJMGLQmku/7661Oe6tIq1H6SRW/5ry3orROyYrU68Z0GZbBQEnlWUNOR5V/VV+FYXtrLSm7q7+2I+nbIMsty8c1ABSGQBslEqla6fe+Oup5J5thamr/61a9Sg+ZfateDsVuvEqnIyXlU0+bzZCALovl9II+HeIhrxWfGU08e+lgrxdeGkHXHHXdM53KPj4yWY7eEO+JXy6oMzXUGztPh17/+dSJyXo2a7FwHQJ5j1+Rnv1qX1XJKU63HfE06demLR/Z1MDpVi98iY1VGBlm2KqRDYjPgP/rRj5JMnZdl7317gn5Wtr7yyiuTXLpA1tuxTR3neq4vU32duZ7PS1ctV1tBwzyfpdlX/TUNFcnIzUZZJVqvaO1HhscIXPd9AB/V0IuqbINmkz2+BXDzzTeniucFvTRrP0N56EQuXd0rH2n9DjA3lF6WoekdeS0E9OIAwjIcHs+yf5Zkd08GeZZQ9zEQPb17LMVnwVi6+O+DJAzP+6+8qbDUB1h4BYvTmqjSGzdVd1YeQ2p1IgxjgPkLSTwSkMfAXXfe15IcI7w6rJaTB/KalYV61TkZrqkbny9jxBa2teyEzoIMK1Gr76r3oyudyKjWt/oQiSCel5i/9rWvpQWbLH3PRtS7zix3hO4nW/1bTl55Edbyh5ZGdE3Hpv11gNpRGehNV2VyHxtwL+I7ppPOCqRptOdrdfKhW8eavOUra4Pe2ka246qJ5YqxpJ0FVRmQSkQqjWMW1XcCLLyavxWgATSOEM5bC67zSIzIOpT0yMjlYXDIwWCQQe9rXUqNoeEtje6tdwZnqXj3+S4CI+YNNCaS5HUoczl1DAwecX1XQWehLshCLt6SzjzvPvvsk4wJmZGV4TFCH6f0vYd6veWhLnQ68rEhv3NCQmRWbvX/y1/+MoVo8lSPvC0SKqc8dQjqTzr3I4F6VMfW4ERoOnlHVweSx1uMWh25X1sDPRDeqmjy1inleiZPyOkLR6IAxKUjMgs75UN3BFFeaXRsvgchZKcz3XRWOmD6+LISvZEQ8ZQJ8awBqu7ZhkhFZ8wetJ81SrUD28o2ttGFnZNfnhrn3T4+zpx4UVxw9+9j+twZqfEyVIyeUsPrHfWUH/3oR5PxMFoGMGHChNSDW3L8U5/6VDJwDcULaHiEs7q0pc01crUDAHnoEZHmpJNOii9/+ctp4VeERACN6wGsj0P66g5SCmM1koViyX/ve98bxx57bDKYqgewr5HzR1M+/vGPp3vIYyjZYIFh+roP3Rn42WefnWQiYCZChjI4zovMej51xhlnJKNyzBOIAuTPOzF4JGK86u3kk09Odcn45ee6cvoYi7qS9+jRo1OnhxAMndHnpdxt9tUZj6McmWBgX10jVhXuQzJ5iDB84egLX/hC6nDkofOQr87GNwEtsKvTFGkgtA+1+DKSfBEL3EdHHtnXm3zeTH1pIx0qT8kufCPC82ZfYSKrqm+j0ark69yhYzw1b0Zc8tD18ey8adGv++J4cObDcekj/4hZC+clD5ihYpHLzz2ESBpGAyEXYjIYlcnIDMR5L/cwCATRC+rdhXlVYmcwCA2sYXKPyINpVCTRWPI0VkM8HgrBESCv+sWgeL76BpWGntIxGDrYl66+k5EW+RiazsXvIPXwemznmjIWoZPy8RA5fEQy3kLoiOCWcqcz/ejA2yqnkFed8jI29YhgvLAfQDunfq00rXOyySt3XsrtmJG7lqE+nfeJsPzptHyPazoNHaGv+3qjxDnLyPuIp7rSZjaho3IBefTW7trSca4z9ahttJEy2Vdn2k7HIJR3r2hIpCRN1qetoHXJ16lz3P/S9Ji5YEbsMbRm7P0HxO5DBsfjs56I/8x+Ln2oMiNXskbKDZkrL58TYlqeXIMJB/XsGjB7FulszUEDMmTpcy+e83Gf69X9TISc/5rk5+tvlw5cQxBlQSZk9109JKkaeAaZeXMv3dWFj5cgk/CcEXp4nNMhaE6bOwD7zukY5M3ALVXPyzBW6WyMOpfdvshAx0NmPRCHvHrQgUdECNGK7z1oMyEsD5xBHxsgLFnqgK5kVKHtnHM96+c4t2Mun63+3raAViUfLF3d+F06dayN+VZG9y5d07cVnK9Ov2h8DSleN+bSM+fBs97cwNu+0O74449Pva1wTIMxZF5T760BmkO1oSE3GAKTLz+egCyhjNCtnoBrguv18vNxzos8ZGPMNh9O8T0GhqnXbgrKqA7pYxwGZFkSES655JK3PDZIo/6En/Z5Rd5YCClcpZMIQD3ySuTwMjw9AxfqZSLKEwF5FnrkOlAO7WEGVl65nsC+e4y7jNHIoa965Uldl5+ow7ksk17V+rOfr+X6y8jHOgRDAvnQhe7yFRXJty2hVbVZppEHbxW9uw6Mp+cuiMXLVsaTcxbGiF4jYpv+Q2PZyv83TD05T8bojcdMUyMjYmh0X1TV2L7c47ov/JhY0CsLwYSReldfwhFGVY0hQ7ijsXKDOrY59kVV9xgjkW2yhGdwzobg9FgTckeQ864eMwT78jIuNKZVRmMU5THZYwxXbzDS8yAmVoxPjZ3UEcP0QRVhGCPm9bJXl4//ZBrDGhshODk6LRMOvowkX+Wlh1AUwZDTpJFj+vOsvFEmbYYyqXuhq+eX+RwoA9KbcDE+8+0/epvsMA5EPJMoPOB5552XPjGNrM5n76rcuX3AeeXKyHWrnMJMnbIJGV93orOI4u3aq7XRqrOd/g/s0St6d+sdj7zyYi3UnBUDemwWJ445LEYPGvFWOpCnxkckDW08phLzGECYxNMhJI9hEkGPjbSO3Wcg714P0TWMyrcxBvJdd597gKdhvEhmM0aiv/tNgvjKjjTOkU8nBp7lVjegB4+iHPIUHpNPd16F/nTQoZCVlzaUnjHyXvXyyfFfWmXj3fwnT5kQ0XVeTN0giHExvU0QSWfBoAMOOCDJUnZ6KC8y0oPx5nK6nwfhTcgzGePaEUcckcpYBXl0J090UgWdlNW9dFB/xoA6kVw31TYT+Yg+tLV6VDZlJdv96lBdIpVryqEt3accOjTt5n51ajzt8QaPz87co2yNnO1s0Rerm1pGQmhZCyZi9qL5sWjpkujVrXv036RnCjiriqggM34+I6yyGZXHAbXOIjUCmblXzPtIbwONrZcUerqvqgPZjI0hAA8KZChrDuUc5w6BPPvVtGTyCCZGcr4gHYNhCHQgzzkyGBoZ8nFs3zXHuQzS2IRKwqZq/dsXLpJPtmP3CM09fvC8jBf1DT4g+zvf+U6SzavIM9/jGuRy57zt09l/bUkmw0aMG264IY0tGXWuiyroRG5z16CaTy4/uE4/1523D1kWPSFfIyO3lX3ntInxrg5H2wBbRFTftZcm17d7G7mMRKuTD8irmUD674oVpeuVcI2nM/vHsPRwQiSNnhsrQ9r6c+C8Z3Km1TWoY9B4Ktw38PK55tCcbNDgnpN54K2hHYNG5fF4y2xwawv52eiLTNXHDfRggDwGMuR6dV0H4zvqOhTkU19kgAkYuqk/99e3R0ZTZXVOOAnyUXfVcG9dQCY0V6/rA7LZnyEIAiorm1F23jWXXbqNknxrC/nmBmI8jrNBrQ2k5/kQpAr6aAgGur5QVmMzRpnrifzs+TIh1wW8nscGWYa6kIfQTgjYlPFK63z1WtarqfRrg6rMpuS3RShz1jN3XlU7dL3dks+zN/G82H9dydcUVOba6pPTNkWA3DDrg5aWT3ZTZVWfOW+o7mc0dW5dkctBXnV/Qwb9efR2t4aLHsWrVcYI7zb5CgreDbBps6te4/NYR4TW2mgR8oFJCG9q5PFCQUFbA7v2KqLZzqail5ZGi5EPeMAcphQUtEWs7+TR+qBFyVdQUNA8OtQ8U3FNBQUNQOsHugUFBQmFfAUFDUIhX0FBg1DIV1DQIBTyFRQ0CIV8BQUNQiFfQUGDUMhXUNAgFPIVFDQIhXwFBQ1CIV9BQYNQyFdQ0CAU8hUUNAiFfAUFDUHE/wE0sS0wd05edgAAAABJRU5ErkJggg==;" vertex="1" parent="1">
          <mxGeometry x="270" y="20" width="223" height="88" as="geometry" />
        </mxCell>
        <mxCell id="io_0k-Pldrt4p_tzGIHd-14" style="edgeStyle=orthogonalEdgeStyle;rounded=0;orthogonalLoop=1;jettySize=auto;html=1;exitX=0;exitY=0.5;exitDx=0;exitDy=0;" edge="1" parent="1" source="io_0k-Pldrt4p_tzGIHd-3" target="io_0k-Pldrt4p_tzGIHd-1">
          <mxGeometry relative="1" as="geometry" />
        </mxCell>
        <mxCell id="io_0k-Pldrt4p_tzGIHd-3" value="" style="shape=image;verticalLabelPosition=bottom;labelBackgroundColor=default;verticalAlign=top;aspect=fixed;imageAspect=0;image=data:image/png,iVBORw0KGgoAAAANSUhEUgAAALcAAACDCAYAAADPhYokAAAAAXNSR0IArs4c6QAAAARnQU1BAACxjwv8YQUAAAAJcEhZcwAADsMAAA7DAcdvqGQAAB74SURBVHhe7d0HtF5FFS/wnV5JISEEkkAIhNBCMQSkiVSxgKhYUJfoU5dYlz5RsD8FC7psy4aigr0gIj0UMYDSQ0INAZIAARKSkN7r+35zM+HL5YbUe7k5zD85654zZ86e9p89e+bMPl+b1TVEQUEF0XbN34KCyqGQu6CyKOQuqCwKuQsqi0LugsqikLugsijkLqgsCrkLKotC7oLKopC7oLIo5C6oLAq5CyqLQu6CyqKQu6CyKOQuqCwKuQsqi0LugsqikLugsijkLqgsCrkLKotC7oLKopC7oLIo5C6oLAq5CyqLQu6CyqJZvzi1cOHCmD9//pqrgoKNR/fu3dOxJWg2ci9atCjuuOOOmDVrVrRv335NaEHBhoGS3bp1iwMPPDD69eu3JnTT0WzkHjt2bMyZMyf222+/6NixY8pwQcHGYuLEifH888/HoYceGj179lwTumloNnLfeOON0adPn9hrr71ixYoVa0JfjLZt20abNm3WXDVAllatWrXmquCVBnzAgdtuuy0GDx4cw4YNW3Nn09BsE8pMWJls6kikrv1bsGBBzJg+I6Y+OzWmTZ0aM2fMTLa658Vp6tlyVPug2LR9u3bt0vXmotk097///e/YfvvtU6+r19xZU0+tEfnBBx6MB8c/GE9NfTrmzp0T7Wr3evfcPgYP2jX23Wff2HfffaNv376psM2UzYJWCsS+/fbbY+DAgWn03xy0KLkRe+WKlXH33XfHtTeOilmLZ8eAPQbGDrv0i27bdU8EXjxvUUx/4rmYOumZGNh3YJx4/Amx/wH7p+cLwV852KbIneyoVavjiquuiBtuviEGDt819jtkeHTp1jXFb9P2BTMmav8XzVsYD9x2f8yaPDPe/IZT4qjXHPXC/YLKY2uQu0Ve4mT7e/Qto+O6m6+P4ccdFCOPOTQ6d+3SQNbabRpdJ1i9soG8XXp0jUNOPDSGjNwjrrj6ihh779hU4HqQm48qonG5XGezrim81P2NCXPdVLxtFS1CbqR84okn4upRV8deh+8Tewzfc62Gdkx7amrcdPmN8fcL/hpX/fnKmDxhUsP9mjYfNnLv2HHvneKaUdfEc889lxqvMTRIhw4dXkT+bRnKlEcp594VrFy5MpYuXZrClTUTUZ3k+0uWLElhTb1baKruGoNs8dTnxsRvzWj3/2pYc75VMXny5OjSpUuaEKqwyy6/LKYvez5GHD2y1jANqyBMkUfGjo+Lvnthjdz/jokPPx733T425s2aF68+/ggKPa2o9OrbKx6v3Wu3sm0M22tYqvSZM2fGf//73xgzZkxMmDAhvSzyRqtr165rSbEtIpP6kUceiWeeeSa9xHD98MMPxw033JDmK5MmTUrk69WrVyL58uXL46GHHkrLr+6brG+33XbpcH/atGmprpYtW5baQ9jcuXPjnnvuiR49eqR6e/LJJ+OWW26J++67Lx5//PH0Es76snReDmjjp59+OuVPnjcHzU5ujTPl6Slx/ejrY1DNzt55l51j1cpVqRHnz50XF33vN3HfHeNi2AF7x3GnHh/9B+2UJpcHHHbA2obu3K1zLJy/IGZNmZlseJWuEb/xjW+khtR4V155ZTz77LNxwAEHJIKDhskanRyH83zQbsKkI57r+rgqWFhjGSA833eQkdfmhW+qPNcO9+C3v/1tesN7/PHHx1133RXf+c53Yvbs2Sn+/fffn8hnNUn8q666Kn74wx+ml2YwevToZK+qqwEDBsT//ve/OOuss+LBBx+MY445JnUKCuFb3/pWegtoLfmKK66I73//+2lp9rHHHovLL788mYnDhw+PTp06rS2LMuQ8g/BcLvfVQS5Hvpfj19dLfXi9jByuPreU3M3+XlxBmSSLVy+NHQfs2ECABpUck8dPjokPPRYDBw+K9/3fM2LP/feKpYuXxrw582oF9HRD4T2z8+AB8eCk+2L69OmpwYRppM9+9rPpLdYll1wSP/nJTxIZXvva1yYi6AC00I477hiHH354muBq1MWLF6f7OsVRRx2VGu/WW29No4EXT4cddljsvPPOMW/evLjzzjuTVpPmq1/96iQDsRBFA7hHFpJ4GyvMNXLpbLTiIYccEkOGDEnPeTGh45MvT717904kGj9+fDIrmF6e95csuO6661K+vv3tb6f07ddxeEWtPBdeeGEcffTR8YlPfCKF0eznnHNO/O53v4vzzjsvyfDcU089FTfffHOcfvrpKYzGzwST9q677hrnnntu9O/fP370ox/Fv/71r1Sf6ssbZ5p/9913j5EjR0bnzp3TtRFFWxhlmETqXifTMZVXOdWnciqTevHmcejQoUkOMtfXpXxIE6m3FM1uVMn0rOdnxaq2q6N7rx4NvTKxO+KpiU/WNPLCGLTHoNh9n6Gpkjp26hh9d+y7tmHBM916d4+5S+bHglqj5ns6jgM5VaJwNqnG+MMf/hB/+tOfUoVaubngggtSpV9//fVJ49NUGmTGjBnx85//PGk79x944IFESsS++OKL4+9//3vqUFdffXXSpl4wSePXv/51nH/++cksMrzTnF4ZaxzPGUmYSswLndtz8nPRRRcljaQzSpcs5XaNWEwL+UIc5XHQaPJJPs2qvDvttFPa1nDvvfcmUp1yyilpRCNrjz32iDe+8Y2pc+dOonMee+yxce211yb5SJXrMUOYw8gnvk6XlYQyGCV1mMsuuyzVuzz+8Y9/jG9+85up/tQTguoYzBsk9le9epby0RaUiue0gfKoV6OIju+edLcGWoTcy5ctr/2tmQkdO6zVFG1qfxDb8iAzJA1HtXON41gHtbgdOnWIZSuWrZHV0CgIQxOobMSh3XbbbbekzZDREPzhD3843vzmNyftoPJoPOQ/44wz4qMf/WiyS2mZ17zmNSku7WcoNvRriNe//vUp3N9MZHlFGtrw4x//eHpGnml5jeXv/vvvHx/84Afjk5/8ZNL4tOY111wTJ598ctKq73//+5MscclDXn/lyT3mnI5CrvzTyJ///OfjQx/6UPz4xz9O2pnmRQYjk7y4Ft9zNCyQm4d5GlEao0aNStf15HauMyLp3/72t2SW0K6DBg2KE044Id7xjnfEaaedlkwh5RDXM+qB+ake3ve+96Xyq3+d7SMf+UjKLxk33XRTCn/nO9+Z6tNoRtHosEbMXJfvfve702j3Ig5sBlpkOty+A9u2NvQtf6FHrq5VjDeSqJ5t8JfC8mUron0tfruaFgPxVaRJluHTsKfx2Y+PPvpoanQE0FDIS8vQJGw+dnm23Q3Brsn4xS9+EePGjUvk8CxNpEH+8pe/pGGZlqXJkMWwOWLEiLQOS8v5i0gaxnBr+P/pT3+aOh95tLU8M4OYUzqQ0UZeAUFe9apXJVLKF20NnpW/H/zgB3H22Wcn80eZaTrp0d6I0JgMaVm1lk9kBveR7MQTT0yjA02c08ggjzZFfml++tOfTuXRqY1Uv/rVr5L9j4zqAdw/+OCDk1KhKNS/ujBC0chMMHVvBKPBPf/Xv/411a/2M0IqrzrzrHrdEBc2Fs1ObpW6XY/taierY+G8hWtf1lDHPfv0qhG/XcyZNSeWLF6SGsJhyKuHwi6atyC6d+qWNBiZGo6m/sxnPpMmQhoeOTIM3RqTrUvb0IZsP2Qx7JJB02WNSKNoBEPnP//5z0QO99ihZCDjBz7wgURo9+RRRyGPLHn0F2HOPPPMpJ3YpRqYmcJ0yHHk3eE8gzwEJ7s+HNxjhtCg5hg0HLIgmfzRng75yXWoUyI+rQ5kksMmVje0prxnIskPc8b6wve+97341Kc+lRSAEY+Jd9BBByVN/Ja3vCWlo+6gPt/CdPSvf/3raZRgipgnGDHlCYnVpY5gnqSO5F8e1FUeebYWmp/cNa28yy67RIfVHWLG1Ok1bd2wSgBD9t49evTuGZPGT4y7Rt+ZCjZrxvMxfuxDNeo3xIG27dqmtfA+3fuk4Vo8MlQYzaHSVHCKWwtTecKQ801velM6VGbjfSoqlZmCeGxUDettGLtbx9AJaFmmhIOGItfz+cjIck2iaCMTvK9+9avJ3GF3GnallzU50iDk3nvvnZ6rz1djsKsdWRvTmoiLWEhn1DK6mCsATUsDS3uHHXZY2wE9ry0QTz7Yx+oLyHVOcyqjDgDMD53e5Fe9WklRxoyc9wzaGfmZF8qvfTzDxAHa+dRTT01mHoWB1PK3vrJvCZp9tWTlqpUxeNfaULXDgJj8yKQYPGy3hgqtlWXQkEFx6DGHxnWXjIo//PDiuO26/8bcmhbvt/OOaeUka5XFCxfF049NiZF7jIg+ffukytCwuQFy4+VzFfn2t789TQYNwdLTYCpcZWa5/jJVTOwMkRrFNdtRZ2APGl4ttZGPKLQ3Mklb/AzXDg1PW7OxdQ6mjY7BnNDJDMn/+c9/kgnA7jQSkI2s5MmT/Apzrpw6hwmqjgZMLgQx/EuD+fCb3/wm/UVOspkV733ve5Nc8nR+8pDIxJI8nZh8kLa6kW6uT39pbwrlC1/4QhoFkF0aqQ1ryPkG8pk7v/zlL1Nd0MTuH3HEEcn8U580OXk6jI6N5MqQy741Sd7se0v23HPPpK3HjBsTv7jognjVCQfH7vsOXWtn0+ZX/+nKuOPG25JpwqY+8qSj4oyz/k+0bdMwo7//9nEx8+Hn4swPn5k0jyzTjjSf4Zp20BgZKp42tkyVbUvPGXY953mVLZ7JpSF8ypQpKZx2or01NMLTsO5pLEMoGeSxodmYTCMkQDhEcW35kU2pAY0AzCKjiAmwiapnNTDNpY5oVCsYiCCcZv7Sl76UyPTlL385aUPaTxrqg0zEQIoMWthyopFInZCdO4PnmTBsfM8op84nHYpA3nQIL3bSKFsjWqZFjqse1Ik5gfIyP+RXvnUco6K8qV/1Lq/k6ByeUTc6Rh6xtJm6lCcKQF2qi5yu+EaXLdlb0iIbp1SG45LLLonRd90SR55ydAzYdUAKgyWLlsTMaTNj3uw5ab8Jzd29V/dE7icmTI5xN4yJt5x0ahx73LFrSYyYKiAP1Y2R70tDpbvO5w7PgXNkrZebZWYZTd3zjL+5DPla3HyeZYgjPMtz7bzx8/KSJ8HeFlppYWe7l+VALnfOl+eEQU7TvRw/p1tfV4gnXAcU5r7r+jiQZecwcWB99eC+MNeeBef1abjOcpxn+VkGCNsmyK0iFIY2vfiPF8WYR8bFAUceGEOHD2vQErV/bWpErlGjNgmoFbr2f/HCxTF+zMMx6Z7H4vgjjouTTzk5VVpu0G0ZGr2pategVk8sx9FqhvN6LboxWJ/s1oSNyeM2RW4wMVywcEFce92ouPWOW6N9j47JBu83qF9069Gwn3vBnAUx9clnY8qEJ6PLqs5x/NHHpYlR1hBVh4bPGq8KHXlzsc2RG9jfGm38hPFx9z13x4QnHo3Z8+fE0rRUVpv4dO4S/fvUJpSDh6YJFxtYFl9JDZ3J/UrozOvDNklu0Hjt27WPJcuWpMnEvDlzY+nSZdGmZrp06twptu/dO03MDMmNny14ZWBrkLvBqm9h6E/LVyxPBB80cFAM33//GHnIyDj44BGx3777rl3JKMQu2BI0q+amffW6QtKCTQXN7c2mJcdWaZZYR7XgX8hdsKmwhm7t3ZYKpu3moFnJbd3Si4hC7oJNhfmWN5r77LNP6yS3t1bepBVyF2wqmCVc41qtWbK+1ZKCgg1hm10t2VjUv9CoIurLVvWyvhxo1eQ2qDTTwNLqsDFlRX5LpKUTbBxaLbk1IjcsW1ZtnaxSgyqbHYI8ajgdILX9JDyGXgom6LbUFjNv49BqyY3MtlOaMWvUrLXMoi0Tsck2BPHFsy/FM/6CsPprEFdY43AQv17OS6Utn+vriMLl39ZRLmu8YWxTBe5YtpYieuOySte5raLcvWzRrd+XXtA0WuSjPI33hWiUju1qRKkd/Cg5LtgZ2BjWyO2hNjHVuPYK27ivccnggLA+uG+d3WG91HMIRZb92XwlbfckQ1zEsXnfXmx7vMVDMGRzz95ue8PtVc5p+1sPcckEz9bDNY3r4zm0Nc3NY8ZqAGdi6dlLTa7Oo6z2fue49jvbC83jJpMdwe0zryLU15Z+t6TFyY0Qy1auiDueeSSunnh3TJozLXp36R49OnZdh+AakKMqx1yuVBqYh4sw2s4QzjPGbLopW1XjW7Hhv6gzMHHskc5fWnKel5q8SSWXaUC2N2MIZiO/vP/+979P3uDuIaRZPCJaw89pawyEtBcbibNTBSizMF7jyqCTIC4HAx4zVgN82sEGf9d8D2lo+be/WzydXOfjRa6TckrgsqVTNFX+bR1bg9wtapbQcytqJsaoSWPi0gn/i/nLFsfYaZPiovtviOcWzn6RJtTIiCAc8bhnvfWtb00OvTqOb2jw7mjKTFA5NC5va14pn/vc55IXiu+XWJ50bcj3HQ82Pe3JhcxnGnxcx6ciyCaHFwxi8bPkkIzwf/7znxPJcp79JYcpxfOlHvIn3DPeuHEHk0b2eUROBBZHejzxfSvkPe95T3II5p6W3xnYJcmB4V3velfag1NFYm8ttCi527dtH1Pmz4hbpzwUp+55WJx16Fvj4yPeVGugiBufuC/at1k3O0jhQBpDMlL6Fom3VieddFIyNxCkKXIDoohrPzhXL36MvK99RgDhXWcHWDJ82YmmN1qQq3Mgj07AQZb3PHk+j8CpgPaUBpgXcOviIc7JoN6rBHRS2ts3SIwIZHC/yqNaLivtz2TiYOzgUqZDGF1oMeYJ1yxaWwcv5F4/WlZz17TbnCUL08d1RvQfmjT5Lj13iCG9+scTcxu+jLSu7n5hSGcH8/VjriAOexOyjbs+IAN4BhEN42Tmawet6YtR0tARkIpZw3MIxMlykIn/nw7nqIe8IWNTcwGyyTF6SJt8cuqRtb8ySU985M8doP5cPgqxXxotSu5Vq1dF787do1P7jnHXsxNiVc3GfmLOc/H47GcTwVdpsDVxMzQgIrOt2Z8cXWk4mpNGpdFeqpEb32t8jVBsXVr6bW97WxoRyM3EzYQzkTSpdO1cJ0HOenlImR1gxctwzmnX/Zxv9qR5ST3I0jHEpb2ZN7Sz5+RB5xFHR1EHyF+wfrRo7fjMw6AefeO1uwyPKx+/M75z+z/iZ/deFR3bdojjBh9Yu7/uqgoNp1E1KHMESXxp6Stf+Ur6NIEwE0KavSl43r1MQFqv8TX5bFek8sUpH6QhO2ttQCQrLL6B5zuDJnrsYCNJ1qTiMHF8GcrcABEz5IMJwrzwFSrf1jOxrP/+h3w5POdTEDqIub6vu/pQkGVCE1gTS5+HEK5z1HeignXR4qsltM3gnv2ib5eesaRmngztPSDeOPSQ6Ne15zqrJQhIM7JPEdjKiMkUm5QmO+6449I3LxBMA5Nbf4D0kYp9inz5GkHqr9nRZCMncrGHjzzyyBROy/oCrNUPcWhvH7V53etel+7VQz7kx+cs6kcUfy3ZKYvORIYP/LzhDW9IcwG2usOcwqcd2NTSsrKjA+RPOZDpXLrMGvLY4VWENtzS1ZKXZeMUEnRoW5tAtWlXM01q2rSm2VbWTJbG0IDiInO+pgUdyOKve8hS34FAXIRRSVn7I+76rp3nfCKPdF0zAXw5SQfzqQUQV9qN0/SMZ91rXGbwnHTdk39pO3d4zj15SfWzpqyuc1mlR4Z7oOzCqwjKZ5v0odwSaHiQbeSwXOjFBvtUhYD0aDrftWOvb2wR62UD+QhkBUVZfOUJuRqTelMhnU3JUzM1UavGK5Lc9dDwXu54i8dGrientA3bWVtuCbI2JaugZdDqyc1GbE5yZ2RSN8bWKlp9pyloGSC3N8WtltxsXpOr5iZ3QfWA3D7MbwLdKsltOcuKhGG9oGBTYK5kHuVru0b/zUGzklsGLcMVzV2wqTC/sZPTdolWa3MXB+GCzYGVqlb93ZLmXi1pCTSeTLpupipbL9aXZpUnultjtaRsTngJII+XJPlFifXtLV3j3lQgrvSbInB+sVPQNAq5XwKIYwTiPeOtoN2DnBpsAaBZmhvsTm52//jHP9ZuGIP8combmv3qrgtejFZdKxpNg2pkr6ARLA/F/gr32tpRTzb3XDvc81w+bywHpJPvZTlkIzUC0ZrCrfzwhOGNU/98PdYXnstSD9eZmDkPjhwG9pbYtYjMZMu7fOp4PIk4UcD60n0l42XxoWyrkdq1T0fyoayh8bCrsTQqjUVj0lAamjyk4AXjzWT+CWyN7oeYwH4Qu/hsPOJ44DPJwIZDBktM1uARiSz33UNmYeYK8sNlzNDvB0OR3c5Brmbc1uzwa/xq37m0IRNZOYTzsrExS7rCyFUuZZJv9/1GO9nqTVqekx+7Fm2D9ZzyKLM3s1zVPGsTVtWgg29zPpSIvWj5srjpyfvi0kdqjTnrmbTHu1ftaOxDeemllyZXMvu4Dc9MBJv4vVa3BdTWVC5gCGHBHwns3lMpfpsSYcVDHNtQdQIdBvH9LAcSC7PV1T5s4eQgksqVPp9GXjjW6oUhr89N1P/0H7in0/jNRhNou/qQEyEdiEueD+rb7SgfP/vZzxLZyfCrwDqX/d7yYAnV7kCjBLcz+eX76XfeeSDppMptws6zqL6TVQFbg9wtapbws1myYnn867Hb4pfj/hn3TLsjRk0cHReOuzaemT8z3c9QOJuiNDgHAj6P3nbSpn5OT4FtefUT1H6CmSZHdhoRuayR8nrxg6Seo+X4HfKB9NcyJVL5OT9k4T9p159O5UdWaVW7DRE9E0d8nYe25YZWT6isod2rf2kljBb3pk1Hki9lkx/Xttxmm/pjH/tYnHXWWcmmF6ZM5Glk6dkgxj2OD6mf2zMSlBdk60eLkrt923bx9PwZcfmjo2OXHh3i8EED46D+fWphTyVN7n6mN1IgmuGftrMH2x5qRMw/c02b+51I2p0Gp6EREmzs92u5lpHsy6bx829Akkt70rRIpkP4EVMjgw1YiO2TEMJ1kPqRhxxkdV84UoO4TAm/iuu33l1niEcTI7LRhPa3hitfRg8amHsbp2HvBfyEttGKj6a0HDq6ax1aR8n7zXWUgqbRspq7RoQFy5bEnKXzon+NXG1qiq9rx9qkqs3Smub2Q/lrItaA3BqOXZuvs41Ljq81ZU1GEzMTaLG8po6U4tN+NLefbKZ1ebufc845yY2LLM/kuLkz+RH/7ASQJ3IZrpHVM8LJyEBCnaqxA4H4zA+dNM8TmB8ciZVRHqSf5ZkwKkd9p8oaWjzh0mL2Nc5DwQtoUXJrhF6dukXfzr1j0uw5saJ2PX3Bwli8rE0M237gOj6UGk0D81fMXuiGdJ4uiMKb3GTKHmvkpc3ryZAb3F9DO83vkwrc1MhlyyIhwiOTzyWcccYZ6ZeHdRQeMYhEbia3v2xlxMp2eYZ7tD7ist3zMxny4fMRwv1isZHDtTx4C6ez0czyyp4mXwfK5dBpjFbiSd9cQkcxQjROq6ABLUruFatWxIDt+sS79jk+nl/cJq6fNDnumz4nDt75oDhm8PAX+VBqRIThd+jnmdnbTBMuZyZSbFFeMueff34a2pFNQyOERvfXtRWOr33ta3HeeeclWUhL4yM1Lc3UMa8+99xz0+ETD9JAfOZO/j4J+Sae3pohf31nco+ZQz63NKNAPeTHPgnmidHDCJEnSnwmmUJf/OIX03dKaHU+mkwgz+mMyM29zYT17LPPTpNg+arvYAXrosVXS9jVu/XqH3v3qdmgvYfEMbuOiJOGjIjenbdbZ7VEo/mqFE3NBkUuNjS/Q6TU2Eim4a0k0OA0Lo2HvIhEo9N+OgnIh/xY2vMVKzKtSIjn3EHD+54Ju5ZsKxTkk2sCZ6JndaKpFQp5Fo+dn5fy6oHw5LLJTQjFkSd5kF9Elr/TTjstLe/Jj/zLnzywsY1W8qWsvoFiNcdI1jitbR3qcktXS16WvSUarUPb9tFuza8GL681amMfSkT47ne/m1YReJwjtAIjAEI4R1qy/XUoSrZNrQ+7J7575LGX83Pi5aKLS6b4zoU7N/EzYUUgZGQSKBdSNbXbUbk8n7VtU5APcWhd8SDVR83kyNf1+ctlcy3vDufi5/pYX1rbMpR5S/eWtNqNUwpnfdeyGE1mFKgfATIQY2OLsKG4je+79rIEiaSPkMqSJ3JbG1nmhsqzoXJUAVuD3K3WYKORfJvv9NNPT1q7KWLDpjTyhuI2vu/axA+ZncuH6+YgNkhjQ3mEjYmzrWNr1HGzklsjyCTN5++mHoZwx+Y+vzWOTCTnkMtUjuY7tDcTkoLT/puLZjNLrCpYNvNSgsZrpmQKKghcsWJkpczWB5PqzUGzkVvPs5bstbHeWFCwsUBJKySWSy2Hbi6ajdyA4CZhzZhEQUVhtHdsCZqV3AUFLyfK662CyqKQu6CyKOQuqCwKuQsqi0LugsqikLugsijkLqgsCrkLKotC7oLKopC7oLIo5C6oLAq5CyqLQu6CyqKQu6CyKOQuqCwKuQsqi0LugsqikLugsijkLqgsCrkLKotC7oLKopC7oLIo5C6oLAq5CyqLQu6CyqKQu6CyKOQuqCwKuQsqi0LugsqikLugsijkLqgsCrkLKotC7oLKopC7oKKI+P8iI1cKxHBgZQAAAABJRU5ErkJggg==;" vertex="1" parent="1">
          <mxGeometry x="520" y="110" width="183" height="131" as="geometry" />
        </mxCell>
        <mxCell id="io_0k-Pldrt4p_tzGIHd-9" style="edgeStyle=orthogonalEdgeStyle;rounded=0;orthogonalLoop=1;jettySize=auto;html=1;" edge="1" parent="1" source="io_0k-Pldrt4p_tzGIHd-4" target="io_0k-Pldrt4p_tzGIHd-3">
          <mxGeometry relative="1" as="geometry" />
        </mxCell>
        <mxCell id="io_0k-Pldrt4p_tzGIHd-10" style="edgeStyle=orthogonalEdgeStyle;rounded=0;orthogonalLoop=1;jettySize=auto;html=1;exitX=0.5;exitY=1;exitDx=0;exitDy=0;entryX=0;entryY=0.5;entryDx=0;entryDy=0;" edge="1" parent="1" source="io_0k-Pldrt4p_tzGIHd-4" target="io_0k-Pldrt4p_tzGIHd-8">
          <mxGeometry relative="1" as="geometry" />
        </mxCell>
        <mxCell id="io_0k-Pldrt4p_tzGIHd-4" value="" style="shape=image;verticalLabelPosition=bottom;labelBackgroundColor=default;verticalAlign=top;aspect=fixed;imageAspect=0;image=data:image/png,iVBORw0KGgoAAAANSUhEUgAAANgAAABLCAYAAAAS0kkAAAAAAXNSR0IArs4c6QAAAARnQU1BAACxjwv8YQUAAAAJcEhZcwAADsMAAA7DAcdvqGQAACS+SURBVHhe7d0H3JdV+T/wiz0UQUFABWWoKO5tmpk5wrSyYdk0s2lLbdl8/cpXr/a20so0KzVtuU1Fcy80Fw4cOBgORFmy4f99H7jo6/f/PMgDPvBV7g/efu9xxnWuc61z7vucp8PiGqIFzJo1K8aOHRvPPvtsdOzYcendChXWbixatCh69OgRI0eOjP79+y+92zpaVbCHHnooHnjggdhjjz2iZ8+e0UqyChXWKlCwMWPGRJcuXeK1r33t0ruto1UFu//++2PixInxmte8JhYsWLD07ppBhw4dolOnTuXXAcjWWEel/BVWFzp37hwPPvhgPPfcc/H6179+6d3W8ZKx35oUXsrEUlCiiZMmxt133x23jbktxtw6JsbeMzYmTZ4cixYvKmlqqrc0V4UK7QvymIb+pfCSHmzPPfeMhQsXLr27+mDcpyFC1VtvGxPjHh0XU56bEnPmzo3FtX89uveIfn36xohhI2K3XXaN4cOGL8tToUJ7gQczdJo+fXrsu+++S++2jqZUMIoyb968+Pe//x2jr7syYt2OMWSrobHRZhtHr969uLaY+fz0mPjoxHjs/vERsxbHQa8/MA7Y/4Do2rVrpWQV2g1tVbCmmx6kXLNnz44zzz4rLr723zF8jy1j1BFviu323CH6DexXwsGOnTpEn37rxw6v2SkOOuLgGLr75nHhVRfF2eecXRRzhd13C+mWl9ezfO4XrY68X//81YRXe/vaE005/3756CvixjtujN0P3jNG7rZNdOrSKRYtWBhPTXgqrr7oqvjbKefExWdeGA+NHVcUbrs9to+dD9gtrr/9hhh95eilpSwfbRUUjn5uLTx1JGbMmBHPP//8iyaBlIsmkzKvBrTEp1VRMgaJF1hbFLWpQkRC+cAD98fJp/02hu+5ZWy108ha3QtqVqBjjLv7gTjjp6fFw/c+XBPgzjF//vzYdvft44s/PqGEhTrsvtvHxvibH4pjPnpMbLHFFsud/Rw3blxMmzYtdtxxx5IfGyZMmBDjx4+PXXfdtbzrSCgbDy688MJC4xvf+MYyVXvllVdG796948ADDyz5pk6dWoRn4403Lu9JNthgg1f0DCdlePTRR+O///1vMSapFLvssktstdVW5bwtkF9opawNN9xwGd9fSXjFhoiYv2jhorjmumujW98eMWzk8Nr1wtLJM6fPiPPO+FeMHXNPDB0xLN5+9OFx4DtHxcBNBnItpZMcw7bZPDr26RzX33j9knFYC0ZSPY7Ro0fHH//4xxKOUhr1EKRf//rXhXkZ+vFG3bt3L4y99957i2J6+X7GGWeUNJg8efLk+MlPfhIXX3xx3HDDDfH9738/fvnLX5apXGUrQ34C5Rzkdd2tW7dlBgL8Suu+Q/p8pqy8L48ylne/vg6HciHblfflTyS98nn/edttt8WPfvSj+M9//hO33npr3HTTTfHkk08Wfmc6ZTjPeqGxjmz/HXfcEb/73e+K58dXqKe/vpwsI/Pm80Tyqr7eZkOn/6th6fmLMGXKlGJpBg0atFqsDEZNmjgprrhmdAzadtMYOHij4jUwb9xd98eFfzov1u3TKz729U/GfoftH9vssm0M3Xpo9FxnnRqnl4RwXbt1jXlz58WTj0yKEVuMiPXWW+//oz2F9cYbb4ynnnqqeCOCBBTo9ttvjze96U0lr/HctddeG5dffnnhx8MPP1w8p3Pea8sttyyHe/J9/vOfj09+8pOxTo2mc889N7beeuvYaKONiuISyuuuuy4ef/zx2GyzzYq3M4lz9dVXF2EbMGBAESKG4Z577inKyku+8MIL5RnBevrppwsthF0eXxK4z/NKr/zHHnuseM511123fI1D4S+77LIi2HghD77ecsstJY9IRVt5YrzWRt6YIbn++uvLc+m/973vxXvf+944+OCDY8iQISU68KUPem6++eZlbUAPHnt+1113LWuHMvBZFIB+tDBk+IM3aZy0F4144blXM8k7NCtXhADCdbydM2fOaosW8IiBVTc+vBSaRvURPmHihJg5f1ZsuPGGpUNAZ00cPyFmzZgVg4cNjuEjN4+F8xdGp86dom//ftGh4//cFA84YNCAmDZnekyaNCk6dWx9HJRCoBOFig7ezH206CzC86tf/SoeeeSRZYJE6TCYIOj4tOascFriTTbZpBgMaQkeb8bDUUKKRUFPPvnkuOCCC+KJJ56I3//+93HOOeeUNlPoH/zgB0V4tYHXoMDPPPNMoYWyOP/rX/8af//734vSuZ9CTqjRpH4KfPrpp5f6hHr33XdfoUlbfv7znxdFIuw8rrrQfs0118S3vvWtUjZl1c5UBuX7de0+2hgM9PzlL38peZK3DJB2qNNQg5LJy2jLyygwcNr/i1/8Iq644opCD15deumlhX50u/7pT39aFI2C4ZXIgCKj+be//W0pX581I5pHwTrUQsEZM2P+4gWxznrrxuJF/7NGlItl79VnvSLEOtjROB3vHi83d+H8Ula98tUjlUj485nPfCaOPvro+MhHPhInnXTSspCRMPztb3+LvffeO774xS+WNKwqK+zesGHD4s1vfnMcdNBBJT1vweLzXELP9ddfP4YPH14EmiDwdDzcO97xjqIE6v7whz8cX//61+PQQw8tFty9s88+u4wf1fnZz3423vWudxVvRGDle+c731loRQOhZNl5vAMOOKDQ+OlPfzo233zzUi8F4Jne//73x+c+97k45JBDiuWlnMaeX/7ylwtNBJlQ1yvS+973vsIbXpgX+8IXvlDKRxfv1qdPn+L9teetb31r7LDDDsU7MSCUiMJtt912y9px2GGHFc+z7bbbFl7whtoikqBkn/rUp+JrX/ta+XLoX//6V7mHHrxDw/HHHx8f/ehHY+bMmcWYeIbf2mm867oZ0TxqX9MFlhqjOndZMlZIdKwJMBiTUY7WIC/Ltnjxolgwv/UJDukoJ0EU0h177LFFACkMJQJCR1gIct++fYvQb7PNNsXKmwCRrlevXiUcpKwUjDe46KKLilArT/naJP9OO+1UBEw+lloY5J60O++8cymXleeR9t9//xg4cGAJ3eThaQk1wecFKYjPddRJ4dHFA5566qnF84F6lEtQGY5LLrmkCKc28QD77LNP9OvXrxgKAio0VA/P4dokBtpc88gf//jHi5J97GMfK9cEW9jJQ/7hD38oQp9l86DOKb2wUTnao40OtLnnXHTAEFFGRmm33XYrRoB309cmQ0yq4Be6HMaB+OSXQuJvo7FtFjSPgtWE3hiKJ5s/d/7Sm7XbtX+9+/apKV2XePaZqfHCrBeKZypeaKniJdybO2duKUNZLwWdp4Ne97rXlYOgEihQlkPH5QGpnI2/OpmiCmdYYrOv8ntOoBwE2HWGoFlulsMTeiZUzMMzUBaFE/c7CCKL7mPsE044oXgR3sdYiTdUF6/hmXH0eeedFz/+8Y9LOKce5daXD2hQD6Ph3HNQ7+67714+blUv70WRTzvttKIYn/jEJ4onwzsGJcO1rMOhvDzymSN5lOka6UmFpNAMm/4SlgpHKbNJpiyjGdE0CraoxiAd171jt5gxbcayTqrpVwzZckj06ds7HntgfNxy5U1lrDXt2efj3jH3lHMMBoo347np0aNLj2Ih6zurEfWdTxjzyE6mfJTGmIhFZWkNqHU0SJed6tdBAAgngVBG3q8/J4QsNgttXEEgcxKAEPMqxki8FbDUFEJYJf/gwYOL4ghNGQS0CWvf9ra3xTe/+c0YOnRoEX7jHF54xIgRJbz6wAc+UMZhylCHsZbJAffQwWOhDa2OhPTJG7T6BWNWvGBINt100zJ1zaNKb+IC74SdlB60Q3484kmNY/WbduXKDfQIGXllXjL7QpmgbgotcjjllFNKhGDCqJ7eZsOLY7E1CEwaPGhw9O7WK55+4snov/GS2S7M3WTIoNh71D5x3un/jLN/9Ze49epbYmZNCddbvxaKbfP5ElJKx3NNfnxybLBOn9hk0JIOag2miOvfdYHwMq23cc973vOeMhkhPMtnjACBd04gpfXrmlGoFwhwzzP5AU3es7HEvJ0QiyWmNNtvv30ceeSR5VXBcccdt0zQjIWEWwSRF6L8hI2i8mC8EyVTl/EPup0LC43RzLARcOGuMdARRxxRJguEx5SC0iofGId6vrhGfxox0EYhM8/4jW98o4Rv6qVU6qUAH/rQh8p0PK+O1xT/mGOOKUZBfSZAtJfnM4Y88cQTi1FkWPBASCnMxAP8zXq1XWjtNQuP6vny+nlNo2leNOtAx1lnnhV3PHZX7HPYvtGt1tGLa0zlmZ57empc8Ofz46bRN9SUa2Zh+h777xEfOeHj0al2Lu/sWbPjqr+Pjr1H7hmHv+vwZda2JfAghJKQLBm3LS6dy+qzigSLxWXdWXljIYJE2Cif/K6FT6y5a0JBuNKioolVNlAnfARIPYSQ8BjDqI/wETzCIi+FduA7JTLIR488hNEYBw2eocH4SdhE8Y2peC3nZgHTs/BarD86eB7965lyTFCgHbSDV9RefEEfvlAKNKS4+DW+wx9hHFrQyyDgkXPlGytqE0+VdOEH2igehWdg8IJny/Z6hm7vGNGOzyC/mUNT+pQSXcvr55cb5E67eOZX3Me+BA/zf33Kb2L9LfvGDnvvtExYPZs3Z15MnfJsPD/l+ejes3v0G7hh9Fy35xLrWvvvzmv/G9Mefi4+9YljSpiyPLp1lDIpUcK1+zoMW5SLoWhw7nDucF/5zjNfXtcjy2h8Jr1n6pE/n2f67BbXSY88SZ9fkC9phPr07ruWRnppnDfW4dd9SLpSaF2jL8ushzLqUV93Yx2uk9fuK9cz95Tvuev6urKMpI2X5JX/8Y9/lAkpM5GQdawOoKctCtY8kxw1EAAW8OADR8Wjtz0S4+64Pzp2WvJBLSZ27d41Bg7aKEbsuHUMGTG0fFnvOQ9335ix8dgd4+PQgw8p1jg7pTV4Xq9coH73ssP8upZWp+d53k+hznx5XY/GtIksM+nI55nes6wz6ZGW98n6Mp97LaXP60wvPzTWkfch6UokfVlmPTJ/HvXpGutwnnDNS6Jbuqyzsa4sA/2UTcTB8xl/jho1aplcNDOabrkKRmLo6CtGx6VXXRr9t9gott69Fj6ta1ywdBxQS1PjbDmdNX1WjL357pj6yDMxav9Ry8YSzc74CiuH9HZkZE30cVs9WNMpGGS4YHbtkssujWdmTInBW24aA4YMjJ6916lpT02xauOwJ8dPjokPTYgBvfrFIQcfGjvtvFPJXynXqxdkA9ZUH78qFAww0vFsbZA99t57a8fYGP/E+Hh+2rTyfIM+68eQwUNi25HblpePffstedlYKVeF9sSrRsESORg2wzRn9pwSq4MlK9179Cgzb8KGNUljhbUHr+hJjpZAcSiY6e/+A/qX91uODZdOmWeaChWaES+pYIR7TR9Cv5yJMvPkcE6xMiysjupYnceKotUQ0YtOywN8uWBKNQeXFSqsraAqXr77eMBHzKs8BvNpji8MeItKwSqs7UgFs5ZN5LTKCuarir322qsa41SosBQmOeiGz8eachZxTb/HWJ1Ym9raiDXV9vaut+lnEblWx0sh39g3G9pC14q2tT2B3jzyu8IVpV+6tqSHrCvR1vyNSBpWBJQKv5vJoK1WBdPBtN96J+uVWmMcBvnuzGxhMwFdBrjGpMtDCpS1TdaTiQBWRchWBupjZX1974sYX6tbFeALdc9WhB4zt/phRSMY/alf1WU/EO03zMh3lyuDpOGlDJW6tc2KctEXWWsGrJZdpTTWUgfHVVddVdbyWMdkCQLGGDhyvaDjCfCf/vSnsvrWJAugQTmZVr4VoUt50ssnvzyOxnqzLOmly+eZx30vuy3L1+mWXuh091uiya8l7ZaYaIO2Z9nSN9LfEo2QtHjuaEnQlNsI9VlUqXvtzeGw0tk+Ft4pWuah3KS/sW75KYp9SSwhscyFoiWdfiHpVBYFtrmP1cYUi2IzpmTIEiBps6769jt31PNGO9Fg8ah9SizDsRYsjVU9v8A9/UO+bD1g1bd7ysq0kHWCZ+43tkW+5LvnrpPv7rVlV6mVVrDOHWtK06lG3NKdm6xIbgkItX7Jhi7W/diPwiyM+NWan1xR6z7iLQ60zoiCaQhhcN8XGxYNssheIbBqGOlZa/AMY6yXIizWFuk0io0WK5TNlGJw1sMCq4f117nyeKZ+a5tsaMMAuNY26dHEarKgaMpOl89qX21SH2XDV5vXKN/6MPTgr/ajx3OvRtxHO94RHF+RoxXt+JZ9QuB4enUShIQ2qUeZX/3qV8vGN/bosG7s3HPPLSuYKRma0W7Lulxn5gW+MhlCy0O0CdBkXK5c9OCXNqhXOT/72c/Kyu+vfOUrcfjhh5c/74Ne+a2SYJj03Z133lkmCbKd2pxr6pSNp/Joo31Ozj///GU0oA1f8ILcoAc/0I0Oa8fw3KJRfZe8s7sVevVJKpA+IBdocp1tkYdxRyMZELXoQ1BGuyuYq3ufeTwuePDmuO2ph6N7567Rt0evJQ/rgGgKZOstC+QIOubqfLvhKp+1Y+kw1q91XOq2SpdQYgLriXE6m4XCLCt1McPKWr+NcI8iWLZ+xhlnlNDUgSadZcm5sigHT6OdOoaw2UaMYGKu3ZzQYWGge7wAASAQ6JLf7k7yoQnjfRupftuyUUqbtvAmVhETZDwgvJSUZRZG8ozoUwehUQY+WfFslyX1EBSeU2cTMp2NbwTQgsb6lcjypuLYTsCiToszrSLmVSj7fvvtVwRMfuXbuIaCqEOfC7f0CcWgcOi1bRxvqA2Mpv6iqOr6zW9+Ex/84AeXbR5E6NFl+ZC+0GY8INB4RYCtTsbT7CNlUqrsc/2X+yFSYrTxjv/85z8LDTYBQrvtA/BDORSO8FtRnSGjPtY+6bzDwmO06JesV53aolxb4blHBrRFf+BJWxWsTWMwYlyL3uPOpx6J0++6PJ5+YVo8Peu5OO3Oy+LuZx4tS/brgRhbebGaNkaxLwQidS6wRm94wxvK0nXbdknPugondIww0tJzIRbFsNWYrc7s2GQV7plnnlksjXyNIGAEkuDqlC996Utlkxj5KCpBJgy2FdP5whCWC+MIEEtnCzRrj2wOyjhQMoJqgxx0UW6Md44m2wCgnyegYASBtwadolyrim2VpqMJug7885//XDrLrk22MiN8DJJ2EXhKams327URjhwTqQPN6mltnITfhFMbHdqFt6IE1xTk7W9/e2krfhAq9fMuaEWn5295y1tKWkqpvyz/Vy5Bp3xoEE7xjO7nwRDoCzwh/HhmIx6bu1JsCs5z6Q8b6ugPoSDF0D4GgRFiJNCRHhE/0IwnvD8jp+/wi3zJi2+eod3WcQwlowqMH97z7PjOONmtCz8ZUAqJ19qpv7VjZdA2BasRPWfhvJrnuiV2Hrh5HLvbW+O43Q6LEX0Hx4UP3RLzFi4oaTIti8OCepeGeSw5YllCHe8XM84555yiLBhCKTSGu2bBdLDO1nnysKC2CdMhOlXHtQRpMyywt2BuT8ZLCS2ES7lHhf39CJyORrfl8rZOkx7d6FQPOggoT2Bc4pri83K5dRmaHKDueuUnfATUknjGQ5irHZQXjI+EPgSW1QXW06sS26wxPPXhIT5pB+XO7QhWBGiWVlu1DZ8IP6Fm2fUBaB8vhGcsO+Fm0Agig4RuaXlzCq6tWXYjRDKEl6LgHf7is/bLQ5kNG/DIniWUgQHgrfFc/eigrAwzxTGMsLpZ3zHiQjnPtQsNeMXoOfSz/hQ28pwMCZq1Ad/V5VzEJD9e58ZC5HBl0UYPVgu7akRNnjU1dt14y+jZpVvt6B47Dxgek2Y8GwsW1QagS9NCWk4MQTSB0KGEBlNZaW4aEy2UFC7IQ8AwyIEJ8hJwA2idRElteKIcTPW8HlkXAZYGo5XjQA9Lhw4C4R7rpS51+/WMQrsGtCovaXKAsRqaCB1lNebQVvU2Ak0EFNCgbuUwQn49d44eSkixnRMYFjvpz7rBeQqfdK1B2eqTRpsoEZ67x3sK3QgfgSLELHh9XdqOBzwbQ8Ky6y8RhbZI656+YKSSFvU6V49nysBbNLinX7L/8EZ9+QzU6wDPkg5e0xCCohpq8Mh4nv2VUDcD4T4a9akyUgZckzVDFe3m6fBTWvR4Lm3SsDJok4Jhd5daAwf36hc3TLg3ZsybHdPnvRA3T3ogNluvf3SuMSa7H0M0TvzNi+k0jWItWTxM5bFsmMJNE9BkhGcYSeDynDCzPsIEMb7OUV5LUDfmskKsFY+FWcoCA24eAh3SChUwlsV23RLc1/HKQBeahH0suB2h7EtIuVpS+ER92c6lQwthJyxCTRt74geLWy9cLUF+ys0LLI8XhARdPKsxL0vNGOA13gjD7EQlWiCoWR8eyksItV1/MUb2whCVuI9G6YW4DoKvHv2Kvhw7GuPqX9eMnr6k6DmOaa2NaFCP9jlHs3GnfPiEdjS3pgT15ea5vkYP+bTbseHLUUcdVcJWBmBVFKoRrZu9FuDvIZvQOHSL3ePMsf+JH938jxrVUQsb58b7ttkvunbq/KLZRELIKppd+va3v13CGINSAqWxOlSH/PCHPywdlx8X6wAhA/dvrz9MwBCW3EBauEeoML416AjhhvDK1mvKxjjloslfDLEHu/qEC8aHQj8D8LRaBASdrpWH+cI7Fp9HFeYJcwymDcwpKkMC8hGotKryO89OVj6hMaZjhc8666wy2NZ29+05QcnS6LQE/NUuee0vb4xULxzqEjrlVm8sNYW0VRovyehoD9opoPBIuKVd6iTEjIYBv8kO/Sa//qJA+IZnaFQ3QbXlnDGWsZZ2KI8iZJhrTExBtJXXY1iNm+p5k7zyyzvrd31oXPTud7+7KJWJn+9+97tFBvSZfgD5su/qeZf9oS/xjUE0+YZv+kDbGWTlQz09q4I2zyIKEwes06fmsQbEvEXzo1/PXnHo5nvEFutvsjTF/yCfhjuUh1GUBaOV676OF2/7NXAVGrHmGk34MYr7plTuock94yblEBBCkN4lD+DlhD4ESR0UxLVQFDPdAzSZbCHc6fkIiPw6A53CEPR7xgICZTVeELbqVOMK4wh1sI4MSs6ioZFBIbTqIKDO0U9gPDceVY52iv2VgQfS4E+2qx7oU756tDOB94wW3lEMM2TSCIP8hRRtkwYN8hEw7aHYQj/1oV978VabKQOBRyfFEknor2yTPkU3odZP6BfOG3vLj6fSyW/iyf6M8ugXz5StLnSTAXUnz93HI+nklUb/4Sm5MRaVn6J7jm/yMrLJO/c8wy+RgzpEI2j1TPvdV7Y6la2f6uUfHW2ZRVzpbxG9/8p3YMZejpagYZjKciBOZ6rStWcEhBWSxlH/jMDL4zkaPGdZQDmeaSgmNXoz+XUIBmUZ6nJeXxaBlibPk0Y0pCV0LY9DGa7dlwakQ3fSpC73XIN08jmcS1t/rSz0ZBu0O+lRhvTZ7kYoI/NKVw/PlJXwXBuUlWmlybaoy7V6s23uKd89+bJ97jmUk23K9KBfMq/n8itbfs+SLmVKk+WCdI4sN8txLi96pW+kWVmus6/UkfchaatvmzLVK23yobH+eqCD92WQmupjX8S3UtVynzVCWpA+GWLKVeip8YCplIuFZGVct1RHfVmrira0oTW8nPS0FW2hf0XSLi/Ny8ErWBPlNK2CtRcojxje7BWrBprEOgkPcnaqQoWXA2udggHFYoXqoVnZtErBKrxcoGAmVcxAr7KCmQHyFz+aXcEqVFhdoGA+BjAxskoKRkt9mSDEyoFlhQprM6iKoYdJETORq+zBjG1MIVcerEKFJeDBvDg3ubbKCuaNvDf2lYJVqLAEFIxu+EJorZnkeLmR4XCy5uWaDl5RNNZfj+U9q9D+aOssYpu+RVwbQIAZlHw5Wf+icnVBfa0ZtXraKjQ/KgWrQ3oH37z5xs/0v0+8LJHxns3b/faE+nyV4vtMH+Hme716+KLdIkGKlvRWaF60u4IRSm7V4ZMkszApGH7zmU9V/ALBci193ktkOZ7XC/yK5Kl/pm60ZFnyK8+rCcshcqmL7+R8JULJWgvZWhN0ZTbSoo6k2289zcrhMX1Q6/vGLNcz3w6i10e3DEB+nVKhubHSe3L46LfjMuFquaM989W5pSZW9hIMsasFbATLQNE4j0D5MtuX6D6sld5aMUsbCGmuXSJUXh9YIGeGk4B6jUAAlaF8edQrj1+0e28hj9jZKwfPTLUSVquMzQoRYB+3+lJeOss33PPJlaUVXln4CNZHoehIKE9ZhL8R2mGiyEen6AcK7GNXH9/icbYTrZkOHT469bEsWO6jbV5uWu4DJp+0uxqLrV7on3bfk2OJOtWEt/b/xR0WF2VrSckInS0D/NHqXL5NgAmGL84JlgWLlo1bVpFfoJ900klFoAi+5fq+kKZ49m447bTTilISVEssfAFNeS1jsYTFM0JLiXwRTXHVL406CKmvyi138A0jYae0hJvQ814MgC/OhWGp2LYhkw9TMzzzy7Opz+uM9EwgH2WwlMUz5fOK9vugkL7wrm+npezaqf3aqCz12fpMHvSj034ReGHBaaVgqx9tVbA2h4gEa/6ihXH5+NvjS1f9Lo6/4uQ4/8HrYt7CeeVZPVwjxjopy0HsNmR5h63AeBxEGmtYFmDZuzT2y6CMRx99dElP4OxzQVitvs39NezhwYprMKUggEceeWQce+yxRZgtLKQ8BFS4Jf3xxx9flliYJKCsBP+4444r+zXYq0M6HteyByC8lMhLRQKvjsbQzPsQCtMIaSwVQQPv55rX1V6KY5sBbcp2MgjaiS88JkOAP9Z68Wb28bBfh3sUtZHXFZoTbVIwXUroRj96R5x61wUxbe5jMWPehDj1zguKki1etp75f6AABNl0P8G1uFCYaNIAeBlrhqzNsQ6HV5Peoj/roqyxkpaiEC6rhwmug6BSilzRy7rzNCYKeDi/0ghF7c4kJDTeEea5b8KAAPN61itRJmGqsLDeMxiHCRcpizTgubZZl2azmEZv4pxHZFDUQyl4Yzxg+bKdPkXLdlIuCs7zU2hRBKW2Rst6OGVZ91R5rlcO2qRgdo2as2B+XPLwLbHRuh1ju/79Y8cBA2PAOp2L0i2oCZ9xWSMIJxDOHKvwIoREWOie6zwoAQvNWxAmv8JBAm3s5joPZcpDCSiosqwEti8fpbFyl5dSJg944oknFkHm6Sw+JMDf+c53iqIpR/mUtdFLOdRRf9+5MSBFagTalMWwUBqzkgwBhdJmdXie7UQ3fqAhoW1ZjmfSagc+VHhloM09ZduAGfNeKCuZO9Z8mgJ6de8WsxfMa3HzUYJhkE6QWWWWmzA17tQjHQVh3YVOvBZhMz4TJuaGOMYsQNiEUZSIByCEQsyjjjqqTFBY7aweXsyqW0NNimYcyNN5Znm4rQMoYe4sZGyk7lQkwsyTCAONR+u9h1/jIuO8vNcIntnSeMvueUe0UErt9DJfXRRJO7VF/ZRKecJGh/LdM2mCf40GoELzos2THDzUxFnPxbipk2O9rl1i+rzZ8cCU6bHXoB1jz423ftFUB4USltmDwWyaUMlegMIhB2E3BW4pOiFUj/BNOuGUDTkJHm9EYYSD9tLjCTzniYRZhDLfDylPmCgMNbZzzz4Q6JCGtzFBYIymLOMj9PE03syjk4LnrlUUilKbibS1gPyEnYBTDNuXmaDQnpbCRF6PB0MDRbaxCi9EmYS92oFGbdJOa9hMBAmdhYTqMmbFh5w9FS5WkxxrBgxuu84idq6FiYN69YuJM6bF7U9OqP3Ojr022SXeO/INsV63ni8ahSGGYAPhcm1iQmhG8BwmLQgMj0KYKIt9F4AQSku5Mq0JB56MB6RcFNM9gqkMIJw8nmeURLlA4ezLp3wKohzhKwU3zuEtGAVKp0wMzBe/ro23EulBeFfjOTN7LXkV5XlmXwrjT3tZoIeiyoe32mnyRTt5ceNLbXUfDdpBme13YQzKC8pfebHVj7Yq2Ep9i8iLTZ0zMyZMn1LzWB1i094bRu+acjWGiITbzj3CqNxVClSpTMSywgQ9lYDQuOfaQWnyeaYXyjlPJQHplOuZesG59NLVv6tSt3O/Dun9qkN5xmM8KWU0hU7BTMSYacz6EspHS0sziQlKpg701OdHQ307PdeGpMehbPnl8+uQXtoKqx/6e7WsaDbhYR9EWEBIamOzRiDG3uLCLlPMLHJLZbUGitESea3dh7bmabzvmnUixLwbeimPc8/aA63RVo8VSVOh/dFWBVvp6SgKZatsR0vKBayuiQf74gl92qJc0JpALU/Q2pqn8b5rYyT0Ao9h2p4naS8srz2JFUlTofnQqtToUFac5VyVg8YLfzKkeyUcibxO4a5PUx1r7wEravBaDRGNPcxceadU7cxUocISGC74MsmklzH5S6FVBRPOUTLvsJa333qFCmsLqIpIzLtNuy3nZNry0KqCgRDRNHVbx04VKrxawdEYkxv6rAiWq2AVKlRYNbTf1FiFChUqBatQoT1RKViFCu2ISsEqVGhHVApWoUI7olKwChXaDRH/DwxFTMCnz0a0AAAAAElFTkSuQmCC;" vertex="1" parent="1">
          <mxGeometry x="209" y="270" width="216" height="75" as="geometry" />
        </mxCell>
        <mxCell id="io_0k-Pldrt4p_tzGIHd-8" value="" style="shape=image;verticalLabelPosition=bottom;labelBackgroundColor=default;verticalAlign=top;aspect=fixed;imageAspect=0;image=data:image/png,iVBORw0KGgoAAAANSUhEUgAAALcAAACACAYAAABJEfiKAAAAAXNSR0IArs4c6QAAAARnQU1BAACxjwv8YQUAAAAJcEhZcwAADsMAAA7DAcdvqGQAAC7ZSURBVHhe7d0HuB1V1QbglUJIIyGkUaSE0EGKUgSk2VAEwYYiNrArVkR9FPW3Y28oNkSjqKCAIFIUEDAUDQiEBAhBei8hpHf+8+5k4XA4N5DkcG9yM9995p6Z3cu31167zfR4vIGoUaMboueS3xo1uh1qctfotqjJXaPboiZ3jW6Lmtw1ui2Wa7Zk3rx5MX/+/CVPNWp0jJ49e0bfvn2jR48eS0w6D8tM7qlTp8Z1110XDz300BKTGjVaA7UQe+edd4711ltviWnnYZnIPXPmzLjsssti7bXXjuc85zkl8TVqdATS+tFHH43bb789Xvayl8Uaa6yxxKZzsEzknjJlSlx66aXxwhe+MPr167dUcmc35PcJd42fx/2rsVqASoLc//73v+OAAw6INddcc4lN52CZBpSI6pLoRYsWtbwQ2bVwwcJYsGBB0c39Lly4MBY9vti+lb/66p5X8qYrsEySWytMyd2nT58nSW6EBzr59RPHxzXjG3r5Aw/G7Fmzo2+/vjF0xLDYbrvt4vnbPy+GrD2kZDgzX6N7Aicee+yxGDduXLziFa9YuSV3R+jVq1fMnjMnLrn0kvjat4+LU87+Yzwaj8WQbYbHqD03j6HbjozHek6PM877c3zpG1+Ocy84N2bPnl381ajxbGGFJbfWOWvWrDj9zD/H2HFjY9SOo2P0dqNjwMAB0acxUu7du1dxN3fO3JgxbUbcMmFy3HLNzbHL9jvHG1/7hhg8aHBRWWp0P6zSklvizXmfdvppMfY/Y2P3V+0Zz9v7+TFk6DoNYq8Z0x+dFjdee0NMHHd9PPzAw7HWoLVi5312ib0P2TeuvO7f8Yc/nRKzZs+Knj1aJyP1+yo8pxl70r+rdLpnAmmrpi/zlFdz2qv2rfLWkZ80q/qvmq+O6PV/DSy5f1rMaaged9xxR2y00UaLC77xN+6qcXH2BefE7gfuGc8ZvVEsWrioFOiNV98Qp514avztT+fFlRdeEROuuj7W33j9GLnByBjQIPnQdYfGlf+8MtbqPzBGjxq9JIb/QRj0d72CuVKVBRMnTowHHnggRo4cWdJy8803xzrrrNPp00zPBPKgzEiv3r17lwvuu+++km7mpJleEDKPaT9t2rQYNGhQyZvezxjlkUceiblz55YyAebCMWjnTu9qDYJfyLJbhg66bZB/ab333ntj8803fyL/nYXlJreCfKxBvt/+4eQYvuWI2GLHreLxRY9Hr4YacsfkO+KXX/9FjLv4XzFgrYGxzvChcectd8QW228Vo7cZHQvmzY/BQ4fE3HlzY/xV18XOO+4cAwYMeKICNByV+K1vfSv+8pe/xAte8IJSydSX3//+93HLLbfEHnvsERdddFH8/e9/j+c///nFHhRgSrwMT+Uyc0Gac5Nu/TaTwHM1vMQzDU8ZXX311TFmzJgYPXp0DBw4ME455ZT42c9+Ftdee21cfPHFMX78+GI3fPjwQsiTTz45fv7zn5eFsn/84x/F3cYbbxwjRowojf0b3/hGKZOtttoq1l133TJ2OfHEE+PBBx8s7n70ox/FSSedVNYjzjnnnLj77rtjiy22KFO30pX5qea1Od1+2bnnnltI95n/ZnP+mKW9Z5zpKnIvTt3yoJGfmydPjikzpsaWO21dnmHBvAVx3eX/iZsa6si2O28XH/rKR+Mjxx0dH/na0Q1ib1bs4fGGFNp8+y1i5rxZMXHSDUUqKQxQCCS0iqWvqWgFyN5C0vTp04u7lIo568L8v//9b7kefvjh4kdBkx533nlnMedfOFnw/CDVbbfdFvfff39pQGmv12CuMekt2FXDu/XWW2PGjBnFjHvTnsISJntpsDYwYcKEor5NbpQX8u69995xzDHHxIc//OF40YteVKQryXv66afHn/70pzInfPTRR8d73/veuOeee+L4448v4XAjLX/961/jwgsvLPHJu3CR2LM8brbZZvHxj388Xv7yl8e5555bSC6N0oBowvCb+WGe5UB4ESzy45dbZaCcgXtlyIxbZcEtaGjKQ1ot3LhPu67AcjclBXP9hOtj+MYjol//fsWsR88eDT17etw8/ubyvNcB+8TWO23bINmihvRep/hxAeL1698/1hu1flw7/tp4wc67FVIrDAVm4t/U4fOe97wi4fbdd98iCdkrYMh7/lTWr3/961LozPl9y1veUuI79dRTi4R0T4q94Q1vKFJOHCS/cO+6665i//rXv74QTgXpJRBTeBtuuGEceeSRRfr+7ne/K40O2RDprW99a4waNaqoEsgpTRqDHmfYsGFF7UgzFb7TTjuVSxloYAjKjt8999yzpBukSxyf/exn46qrrip+hg4dGnvttVdcfvnlpUxIfflPqUjNYbb77rsXaTl27Ni44YYbip0wkJ3qIj0vfvGL4+CDDy7p/vOf/1ykrXTss88+seWWW5b8Izi3GuSrX/3qYq+BIjZz9aPMrFrrSa+55ppSjhrK4YcfHltv3RB8XYTlktwqW4Xc1ZAWg0cMLoWyWLL2jPlz5sajDz0SazYGlMPWHd4wa0jz+QueJJmB+169e8bQ9YbFfffe94S9sEi9m266qagepJjCZ1b1n2DmIskQ+B3veEe85z3vKYWuwlWaLlolvvvd7y7SFolIOZL17LPPLmk54ogjimrwxz/+sRBbbyHMN77xjfH+97+/zBD1bzTGv/3tb4UglpPFNWnSpEJ2DZL0IyXpvCqcH2G75G+TTTYp6gV167jjjitpQxbp1GsgPhWLe9JUmAhqfEEip6RGbo3mvPPOK+6q5cJe+jVWZCbR+RfmWmutFfvvv3988IMfLI1IupUHqXzWWWeVnuqwww4raSAQPB911FHxtre9rZBdesY0VCxhMzv00EPjn//8Z1xwwQUlDdKoV6EuvfnNby4NPoVZV2C51RKFNX3GtOg74H87vvxf1DBfMH9h0b179WrodUtZbuev38D+MWvGzBJeAkkV7I477lgql7Q0Bcl9tSKrILGQQ0Ogv5OaQG9VqaAS6eYkNiKK0x4ZEom0eulLX1rCoL9SFVSm8LgTnnRcccUV8dznPrc0FgQ3xZUbyaTN4PaQQw6Jl7zkJbHpppuWeAExVfaxxx4b2267bVx55ZXx7W9/O7761a8WUoiLJKyOPfyS+tKiyyfFmYlDmqXlxhtvLP5A/OJB+s997nNFd9dTvfKVryx24leul1xySZG8iI/cwtUAXvOa15ReS68mXnlib9MTwpP4yOyZaiLN3OlFhAHGAki/2267lV5GY+tsSJs0Lb/O3eBYr569yuxIEthvr4YU6jewX5nXnjObPrY4ChXwFGI2vC1a1GgIjUbAhtSWMAVIvfjFL34R3/ve90rlq8hWOpzKVoCIiXCk9Gc+85lCHKqKynTpmv/zn/8U6bvrrruWSuFXBbhXOdQA6UQQO9lIJ2rJl7/85TDupkciGSJwS2oOGTKkxO8+w9OYPDdLLRJa3J/61KeK9CYVjSv0ECS6cPQmygGyPJAKoaWTGxe1Y4MNNogzzzyzpFe5iJ+f7bffvjQwPRjdnoBARANPPRU3pKuyUKbSqdcy6OQOSF69H4lOfyexpY09IUEAXX/99bH++usXISR+l3CVYTbEzoa8qGe/y01uGRk6ZJ1YMGNxpYLZkv4D+sUGozYsqsik8TfGrOkzo0/fPjGzIZ3nzJ7zJHKqpJlTZ8Tghr7WY4n0MYAymCT56LMkDwlJmpKQqVtWISMkMt1Xd083JukNtFQaErzpTW8q6oUumS6oYsVfhXxIn/AQ6bWvfW2RrB/72MdKmujZyKvh0ZURnLqk1xBe+q/mMcFMIzPNx5+8ISj1ghqB3NQWXbxZEdIa6Mz8kfYpocUzePDgImnNxmgg1QbB7ate9arSG5Gy3NOBSWyS+QMf+EBRmZRllkE13YipzDS+r3/960VwIDlSy786oZIpT4NiPUO192iV/86C/BgnGCMtF7kVlkIcvenoePTeKWWTlAwJuP/AAbHdLs+NAWsNiIvPvCjO+d3ZcfnfLotTf/L7mHzdpOi9xmJyGnzy9+BdD8Rmm25WwkMqg0cVS+qQHi73pKXKye4ZuHfvVzf/m9/8phCQhEV2FUvHRPIzzjijEEWXrWXzJ70pcTP9+YzMv/rVr0r3ZsZAmkglA6vsVX75y18WqWtsoBEJk/8qYRLyJxxTecL9wx/+ED/5yU9KfnbYYYci7fUUdG+EOu200+LHP/5x+T3ooIOKKkRCC1880khiGrAhtziZsRemxude2TCXfmWoByTtDRY1TOAm042k7pWT8YewjQuQWuPTONQD3VoPa4xh3CEO6ZJG910J5S4NKzTP3atX7xjbyODITdYrujeozyHD1mm0gGhI7pvKXPfYcy+Nm8dPip333TVGbblpIbVCnPLQlJh05Y1xyAGHlIJXyCS3bpWOJw4JpYeSjKSpuOmyLoWp0FWw1kpaUyPo07plpDNzoGIRmh2pyCwHOyTgNttsU7pkFSMeks+9ytNb6DX0JCQYfZRbgzX6qDhI+FRFxMW/xiX9um4EMTNBteBHOujKyGTAatZDPuVNutiJl0Sn03OjDJLU9FoNV4/hV5oNMkkr9iSrdGYjA2mhQhioU9GUgTLOGRjhS7dxhXKhChIG0kLCS4MGJmyNR/7ZybPyF7Z76ck5bXmixnTmPLc8E2b4tNx7S1SipXNS6MG5D8XuB+4VPXo1WkxDNUHc6VOnxcSrJ8RtN93WUFHmx9CRw2KX/XaN4euNKG5EesmZ/4hhPdaO9737vdG3QRgJI+EUioqsIs0zuSpAPC5u/TKjo0qbivfMDzuFrHGqRIVc9e9euNxmD5Jx0UkRA6Gljxk3Kpi7HABW/XOnokm0E044obj70pe+VCQ/SIf0IGWqBvxDxi8fGrN4q2WR7l0g/cy4YeZeWMJoBrfSxa24M660c5/pEI50ZpllvjKPVCXhaAzM+M3yzPS6p8p05t4SQklvQkAut84to/379Y/9X7p/zH5gVkwad0NZjqdusFtryKDYc/+94tD3HRZv/MDhceDhryrELqxuYMKV42Nuw98BLz+gzHdnZSmkVhWT5lV7fqr3CpPERIo0z4pmxi4rEdJ/Vmi69ZvpIZE1Fs/pjhtmVWJD+lfZKp/KokLf/va3F7WFnUtahJtpSf+Q/tlX85HwnGkD9yo0zdg3+0lwo6EitjizQbj4qaaDHbdZZhl+5lH+ETufgZsk9sqA5SY3yMymozeNAw84MG6/5raYePn1sWDOgqJXy/T8efOjZ6OiPJsiVEhmURD71nGT46D9Dyzzp1lwiWohV9HKvGrmXljN4UGaN4extOdqeM3ulhYec8S3WPTpT3+6zJCk3dLCTKSbdF9FKz9Vs1b2VbBvFXYrf1W3VaT50vKwMmCFyC1jLvqe7asP33h/XHHW2LKlddajMxs6T6ML6714unDGI9Pi5msmxaVn/CMenHh/vOXQN8fe++z9RBjdCfKj66aHmgXRqLtbHlcFtOUkjm7UZeXKEuxdd98VC3sujDk9GqP7RfOid49e0efxPtF7Ua/YaIMNGyPu/RoDnk26JbFr/A8adVfq3G07ZobcOei45+57ymjbpL8BCf3MfO6oTUctnn9soWvW6H7oNuSuQqYQPSU6dy7qycJFrQc7NbofVklyW/mS0GXwWmM1BHJbV7DAttKTW0JtEbWAUhO7xtNBr41sNmjZ92Nq8dnGCpHbds9caq5RY2lAbrCvBbmpss82Vlgtsb+iVktqPB1SLfnXv/616qxQmhEx21Ff9fV0F650FVZoEWd5obuydyG7re4GM0UukMe8r9G56HRyq2ybgpxwaXX4oDvAtlXbSUkt3XKetOkor8ivsddoLzqd3CrR6Nnea/uus1Jzbtzv0wFJXOknSePZVSVR1V0ru7RvtltW8JsktVXWPmz6n33h9m7bvioOqKaHe1tHnSAySE83NVYcbS3JBlXK0bPejatXB2+RoodZrbS/OfdwIwYikORLk3CJ1OWsfuoFDGz58Ww3XnWgm+6EbZtquvWbeiHzql0rMO/IDiGFI27pd/bQHmZ5sj/bfm27/DJ8204zPfwhtkPL9qQjeDX9NZYfK/TGqSpU2sLHF8aDsx6Lh2d729Hj0bf3U6d+EEFXTS1Bbhv47Un57W9/WyrYxn6b5204aga/CGE6kkQ05+5UCQK7hOGFNdzZrG9e1cZ1L8JxTMopFCN2dlQHo2rhCMNBYtsE5K0ZyEbNkE4Nsypd5VuanFrxyoN8h4jysaHMDBO/DiLbauqwglPn3lEir8rCoYA88WJFL1/XsKpD2WjsXXVYoS2Su2Riwfw457/j4rjLT40v//P38YOr/hI3PXJ3satCpTvZ4qCqyiTtvHTGyRMSTgNyzAohWjUgUg9REVkGSEbuf/rTn5ZnZ/8c33KkCwmRhblXRNjX4m1PTsIwd3/++eeXY16I7VgXslcrQZwKzBSoOEnjzFP+ekWDy7EvBM7DzBqXdDiypYfJI2Qa9n777VdOtcijxuxyIkjDk+5aeq842kJuasi4+26Oi++4Pl6z5R7xf3u/OYb1GxSn3TQ2psye3lBVnhwNsuiOkYM0RDYvonnd615X3i2CQOVofpM/4FfF2yOdZyydQEcOh4AdDEBUp2C4Nd+JNBqFF8fYzCU+3T9iIb191w68OvWCmNV4xcXdLrvsUg7dIn4ST/pJbVJfwxS/Q8qObskfcJv3Tow7IOxMqEUNr2dwuFZvgdQOQjt13x2k9sqAtpDbixnG3Tc5thu+Sey78faxyeAR8YZt9ooHZk6Ne6c/8hT9GylcyEeKk3BOgzNDVMexmDeDPbI4CJBqh8u+aQSxAobY7ElKJHXg2Ps7dP1mLfQMVAFkFw9pLlzqBlWIvixdzdBALF4hepXczmsKT7ercZDctifkaReQDgTXPWuE+T4TJJZm9i5hVxtWjRVDW0pSFa7Za42Yu3BezF/UGPE3euuZ8+eWUzgGmB11sCoyD9bSTRHVPbIg6NMhpTiSCctzEpMZfc+pd6e2vb/Du/eQOVULy8KujBdRkbIVwfgRXjMQmh6vRxCmS16E5x6kEXEdRqYOsUfqai8g3dy4aqw41GFbyO1bNy/ccJuY/Oh9cfpNl8fl99wUY8ZfGKMGj4wNBw1rDDSfLAlVpMonzUhgJ6a9vssJdWREOGpHVnwzEK3a7eczMlWfZRCBEIp+71VoVANgZ3bCoNRJbq8q0Fvk68wSwpRefun12TCAucZJlRCOWQ/nJvUSeoh0ww94fyHyGlAaY+QJ8uwx+DMY4qfG8kP94VBbZksENqz/oBi85sAYe/eEuOyeG2LjQSPiNVu/sKF7Dy7kTyAVsqlMAznkphKYG0YgOjjd20xDkijhGVEMNg0kqTJ0Z+8R0dWbZUBq6od75zOpKQaD9GJ+NSQDPwdfDR5J7ZytoPPSwavIBoOMZkG8SIefbADyozcQlgaifOTJ6w7Eoxeil7tnbnZIWjQCjdlgV5h0cYNbZeNNT+JY1aHsOnu2BAgMgqtthxXMcePi3IULCpn79Oy9+HVrTVIb+HPJvAtBqAS6dl03vZuZqxnInFLaBSnp0n31mRuE0ZIRC9mpEaSmV7UZ3Cl44SIa962KRJjMW6kN4tHw9Q5OhBu4grAyLe4zPdJiUYcKJK8qXZ70Ztx0xu65zoC8KPvOPKygHgmZ8oauJWYrjAZdS+X36dW7zG/7FEgrYoMKRhK/gABIQTdGQPAyG68kNv2Wl1VN88TIoOASwlraswajt6HHZ7zsER2RSHMX81bEBv46kjzSn/PnBozCzvj9ZpzC5pYqk298FWY2mtTfayw/sv4KB8pdmyBYgZerw2HkYqjsJDekv5R0ujM9BQmXVw7U0m2ieg/Ndi7hJqlJSWqMd92lKpNuO0KG0xEyDlfVrfha5bXqNs2q/iD91lg+tE0tWRboOpCXlOpIGtKPEbkZS/OzNCCJBSNThCS4Z2Fp4czyuV1kSmJSV5STXsKzhpSSXDl0BH7o6tyuqtJcGXS2WoI3K7Sfe0WAmAaN5p4NBJOoKrtKLI1H9918NQ+0mv21AoJQZ3wvxiqkws6XXJKeluwN5hAqw3om4XYE/ujVtglknJbm5VeF083d59ihGdKrUZhV8dLJqgTvKE3MO7JbXdF2cmch++sIiGsBhTRDKJWJ5Hnxn0RTsSnpmKU5d8zTr99W4F9rRl4vgbRhi/7tqJwZE+RmbpncvbCr6cm4W0HYriq4FY63qGrAluER1QDWCyiF6d0uyC5dnkE41ThdmcbmNLmq8bpP+/TbnK7VEW3bOAUWbZCvoUkunj3pgOAkFncIbhBlqdzeDCoPqc6c6iCu3NSkizbo0zB0dabR7NVAFF9KMPNgSrEZ4iGhbTuVZm9IlX49APfiEa9nX0/wi+jiNUWYsyiII6yEe9NN0iUPCaQy8+NVxd4M60X43hZgatNKKomO+L4dQ+3iX/iIL7/MzZcbbMqTASp1UBmZ4jQTYEqSn1xwMjVqfUCPJDxvypUPPV01zZ0NjbKzpwIJlrZunEpc9+Bt8dXLT42jL/hF/GbChfHI7Gll1qQKGcz93Ihs4eT73/9+qVgVpbtGAM++jqDCkMUmJ4RDUHPHP/zhD0t3ryIRwrNCrDa6lLgqXMP0iyj856IR99yldESy7373u6WA+PEObgs0VRVCOhFTg8kPPFUhj/RL8632sRgMa5SIqrGQ2C7pINnBRjJfcDDfL17mCKvhSudXvvKVsmFM2djlKF5pouJQfTREjd4M03e+851Sfp1BppUZbSG3jVM3PnxnIfRGg4fHa7faI26f+kCccuOlMXP+7CLRq1DBKsIv6YtINh7ZBGXjlGky0hRZLZl/8pOfLNIPAUgpsAhk0ODN/jY95YaoKtFILc82MtkbYvNTfnkLyZEogbhava2opI3vungntYUiOrlGmA0nw9UDuJolOol6xBFHlLz5koNZGS+rlx/S2wKPHsQXHrzMnZSVHr/yzy/Jw0yDNOA1GLbRyif8lBXSs0d8Ev1973tfictuQ4RvNRhf3dAWctsYNfbuG2KjQSPi0K32ipdsvFMcvt1+MXnKvXHXtIfLYk4VKSXBPmcrieaxSWdSWIWSPLnKqHu1wqcxIDXoti1nmxenxlgMIQlTuiY8k6Ikp1/z6eJGzqpbz3oIRCEdqUL2aCM1spO06R6BEdEMANWjmdxgtdMiEcLpkqkiCC4MaXHJV447PFux1VioSqQut3nZHiscOni+OF969X4aQr44XiO27bdGm8gN0+fNicFrDogBffo2dO5FMXzA4LKnZN6CBimWuGmGCqJHf/GLXyzfdyGh6Kp28iEbSepKt0iQBENQF3NumFdJVgXzvLjtyF0S3kAOWRDFh0pJ01QpqqBrI2czhI+sSOgLD74sZmurVxxouK0gbuFlfpohPOFmOSSYk9IanzD8aowd5XF1QlvIbSVyp5GjYnxD577ynknx0KzH4oybLo8hfQfGugPXiYUtKitBnaCiINFHPvKRQiyqB3WAFLVSSSLTRUk6kj4JUK3AjkiRYFe1r7r3i7gkn96Avmu/CKlsU5QGmD0NaAD8G8yaqssGB+6RzewMNYk6QfobG+RSO7WFHs4c2eVDGoRZRaax2S5JLk3UG2EZF5ju1ONQSxB9dUdbSmBBg9y7b7B17Lb+lnHyhIvi0xf/Om5r6Nyva+jew/vbOPVkKYIASQiV7gtkvrBFtyaJ7JumO5KeviZGclJXbKjSBYPumWqgolVkdvGtIC5dPcnYyn3acUfXRubPf/7zRVem4/rCGPJnmv2SkHoYA7k0T4gDycyUGDMYF9C/HciQZg1GQ/JieqqYxuAZ6dO/MDONLvbM2AkjpzHtYtQrmBP3aRKHrun1q/tgEtq3capR8I6a3T394Zg1f26MaKglI/vbQNSokMpSPH+ksJkOn8BDYDMUpI0KsSyeU42m2tjRLZm7+DcQpHsbGCIAcpCC9pDQwVV6Fey5F6bpP8TkHmGQhJ30Uz2kwbOpNz0GaZv7QKrSUBzSzB+dvwrlYpefWSE9k8Zj30nmi19k5z/3vcir8HNvCsksjYgtDhJer4bYxgR6O2lSHvyKjzvz6RqWT2rT05tVqc6EfEhnV61QtnX5XeH2bgwu/VJFmvdxgwp3xpF+TXKRMqDC+YOsEERIM1Dh4mSWJEl/CpI6oyeoktC9gSnS8JvdOxKnf/dVu4yXGf/cpF0V3EFHduk385DpB3Gmvfw2pwEyjcBtlov79EuFoh6ZiRGPN6qaFdLbSUPG1xWQxq4kd1sVMwU5f9HCmLdwQUtiK3w6KL3ZNxepGBLjykquShoVnWaurCi/nrPi89meakve9F2Xg7l0UdJTWFXiVP27r9plvOylrWpXRXOYVTBvzleVaJ71KH7zuTksZvxnGIl89kvI6K2QHJEMYE2pZmNZndHpG6e05pS6HRFjeUGN0GWLowqqSOrb3RHKM3sReVSuyrer0dWSe7nIbUFlecn9bEJhpjpRheeVLa2rA9QHgdMVb3m1LrLM5KbfmS5LPbJGjY6A3AbCVqAPPPDAIhCfbSC3/TcG6ctEbq1QqzDDQF+sUWNpIAAR3KKSrQNmep5tUMlswiu9+LJKbosWK3pYocbqAQSjc5ue7Gy1xHfql3m2RGusr/palqsrIN62TgXWqLEyoduS29RYV0mNZwrpyyk8aGeaqQQZdsazspdHu7FKkVsFPd2gRAUa7Dr0YAC8slYo8lnQshfEIMhlm28eVl4R8G8LgRVb893m/pWHbQsdhf1MynZVQ5eSWwWXUW2jwJsL3XPV3q/9Ho6MIa/nVlBJSG3/tFenVaVXhvd0yPSkH79pXn1OpHmznftWdn6RzpqBwQ8gt2lWK6vcLg8yLnlWTvajm6lQbjZW2avSqjyYea2y421LK9tVDW3NRaMqy8GFpX1ZARSsS0EqfBXtytmXrHyShpusCBXmeJVZm6r7KpjbqGRGx2Ylz/xyWw1vaciwES73RgvDknervdLMM2zI8DOczKf7zIs8IHYelLaCajuCHYg2QbUiGL8dpZ258MUjPSS3gwzitt3BGU6btLI8/FbTbE+KxmD7LLvugDZ/WWFRPDJ7ejw6Z0bZCbhm7z4tDypw63iU0+F2CJIozhvapWepXMX4poyzgldffXUhq4rzbOur3XSmmBwGaJ6SFLaFA5LIfHwe11JxpJdKRCSnVZqJkgQhQb070HZWZy116/w4giYcuxTtFGRmoxZzF0mMXOyoHPa52NONxC6ks7MRuSxJk5SOyOV2VmqBOG19dVCimWTiUv42gVXLn1/xSoMTTU7z20gFtg/niR15VpbUFT0bQaEelA/B4V7Z6vmkc0XVlEyXtKyyB4RJbJulzr/16jj6wh/Hu8/9RnzxsjFxw8O3y+ESV4shgw4hOBRMMjrfaO4c0W0DVRiOYyls0saWU9tjbcRXqZ4VlIpSwVViA+KoTGTK1zWMGTOmPNtHjTjf/OY3yyar5gYKKsSW0RNOOKH4RTLp+drXvlbCtsNQeBod/4hv/ta5Rm4dGkZyEhGBvMJBWl0nnnhiyZc0e7EmqZ3vFVQWGrb8aRBVYkuTZ43BAWBlVJXs7K3KaYjKRqMTj3JAUPq2hiattsc6eK3x7rHHHuVQiPSIV1r4J+mFuaqjLeSmhlx13+Q4eeJ5Mbjv3Nh5vbXj7mm3xS+vO6ecgK+eoVQpdGEV9K53vascDnDELIlKwjgE4E2nzk86V2hiHhlIE1LRqZ3ddtutVFwzuYEZsvjVzSKb5V9fPvDiSyTyllWStFUlMrcX2u66I444osTJnQPDJK3K1zjkARm8EkIPghxIjfh6OfEjkEMKwkEkDUfaSMiUwJkHUlXa2JH8SWD27u2XyGXsJD9z6dDbeFusLzuIyyEG+QBu897JJoLClliHP1y+GCGPWbaZn0zXqoq2kNtnQf51z6RGQc+MzddZJ0YMGBg7jBzekNy3xgMzpjb078UEQhCFTA1RsfZyqxy/pJhKYKebJN292gAZSFuHEvjnHiGy4jsCty6SCuEcitBrCEcjQSDxcVOFClWxVB7xiksXx49nUhqJzWpIg4Zqf7rXL2uAtp6SkFSjlITipSIhj/xprMpB2AnxSgu37DSA5rQ5Ne+lQtwk8bgRp0asQWog0qmHSXUu3cmv/fTSxS1Igzyxf6Zlu6qgbbno0yjwXtHQ0ZY09nkLFzUkeu8nvbdEQSs8Axt6ncuzX5WjUFWIi+TJ1ys4seMolcrJSq8SY2kQFtDjkUIY4kIA4XSEJEOSQ9o8V83c2zOOrM5/umwq8wykt7iklVvjBCqDHocaoBEwB/GRwMqCnfSlXUK43FQhLQakCCquBAHR7FYesmGKRyOuNhTxJcG7A9pC7gWPL4w9N9gm1ug1JCZNmRp3PDY1Jjz0aOy+wY6xwaCh5YxlFdb9SSf6KMnsZTsqXgWb4aCOkILcqAB2pJMumyQ2GMt37bWCykIE9o5iOUTr3SP0TBLWgEsXXq3YKsTrSqSkTaR9NjJSmn7rXSL04iSJNBtPSK+Bs8GwL0bIE4lugKgBCId7hJM/UreqcrF3LyxnLpGWe2CuIRAGytL2UoNSl3TxKz16L26NC4RtPEC10vPk1x00DnnQa3ZUtqsS2vZlheED1o7h/YfEzVMeiftmzI1d198hDt/2RQ2zQU86IMwtlcTpEbowHdBsASCc7pJOq5ARUoUZGDKnWuhWSUunawxGSS1hJlSmSjUjwA8SGczZvCM88Tl8fNBBBz1Fr0wS0Uk1pLL5pkEilZ3P3Hh2ntF4QNqFbX7agJiKJV5qjNkHRGJvHEFnpvcjo7iZUVWUp3icFzWbYwyCbJm2TJcGbybANCdJnfb8CsNAVB6Vl0PO1Bik1/D0EuIXn/KnozulJD51IUyNzcBU2fInjSsC6dYQu2q2pG0ncUoH38iMWRNkXqMxiOzdKPTmk+9AKihA/mXY9JpBmNPbiM0cQemnoPB15xoUiUkKqVAkae5C+eWGtOWGvULWFdOz+UFM8Tb7BWkTPj/8pxmk++ozd8hD6unyqUHC1gi9j8VnSJSX/ChwpARxeFWbgaPT8SrlpJNOKr0UNUy4zeBG3BpMM6RVHJlHqg1II3/KhZvMU86cKFflqz6rZeu5VRqWBcKRn1XqJE4rcicUiCJh08pehhHNq9FIIm4UMhI4/6cioISzpHAzHL9pzh3JaD47JQJ7lbnnnnsWyeU5/VbD82vZW+8gnDR3r3dwMav6hY6ekzD5LD16OK+sUKlmI4TtqvoxM6SX0GMxJ+Gl22A23VXRHG8z2De78dvKX7PbdJdm0rqi6Gpyt0XnrkIhkdbVgqyCuUxSKUw5mdI76qijyoCx6qeEUyFE2qW5XxIzX5Hgcp+zEek2kf7y0l1yy1/+8k9P5rbZ79KeM8w0J11JTtOGpjRJRGZVP0BF8K5AjYE0tuBC34ZsMFU0x9sMds1pSfNmf81um826A9ouuZ8pSNiUuCq+VeU/HRA0iZwgeejhqUK0Ajf8GsBx615++PHrWlGIQ/7kqxVZciDZSppRDfhj14rkqwq6SnLTCgjPLis5lYdUWZHNxFbxro7Ajr5o/tjUYl7msavEbhWOQjewNPsgDLMoVIJ8w1M7ID8KGrGraRC3/JohsmroPgnMjbQbf5y6ZNl/VSZ3V0B56TWNedpecqqwUZWLHzpAVqKLdHNVK9F91S6J4TfNXAjkYs5PNYxmt2knXBIbuagLBl8GgfZlGNVXw6iiI3PhVe3cM8s053OmA9hplLkwJQ/cUE30GtKhwWn8HcVbozWUI1WQ0Gj7lxV6lDdOqcBGpbTguMoygDRtpXWZjjLXqrUZtUuULZqm1nJTlUEWCWsKzgDMINLyOWIiBAkoHPPXiGqqCzH4N7jIfSnIBAay5rstU4tTOMITlum+ZjXCjIbZEFI9yYaU9HODWmZmSpjR2xHTs2lCi0fSZ7efMEwVikc+5Vm6+FcGVmTN39sVqAEaGGsEq6oOrDzUQ2dOBQL1x3imbWIBjyc8dEd8aezv4qjzfxS/Gn9+TJk9veWXFWTWq4ptljKQo8f7MgJi6MqRwz3Jat7VlJkKNrvxhS98oZCA/o9cNiOZCyf9zD5oMMiYm5bcUzmOP/74J948ZTEFqTQaz0ho8Yi55yo0YgT2tQWEq0pSdhqPS/qQVlqkT9ql0VcPctOS9IwZM6ZUeBIeATQ2X0MwP22u2zy+vFXjqrHsaEvp2Tg1aco98eOrz4pbpk6MRfFAnDX5ovjNhAue8mUFlUnPRkLvtDPHaxOPqTmreySvGQTTZ17gbicfEnCvwpHEZh9vYPWa4SuuuKKsQB522GHFzLQa6ecTGzYt+XrBwQcfXMK3aIKEep/c16JRaOmeNToDIGlMsKfLN28BTXONQqPTG/FrUUS67JXRKDQsG6c+8YlPlNcb6DEQ2Jx0zsxowHqVj370o+ULCeLSKKvpqLHsaAu57fq79M4J8djc+2OHEcNi2+EjYuthg+PiO8bFPdOmPOXLCioUAayY6b6tpJGiJC/JabBHwtlqivC5LI2Mlo+5RwYqhelES80kM/IijXB07VYpLRCxFy7yAfWKbpvk8atRaXQ5i5HQGMTp3YbirKoI8iF+ElqDoi7pHSyxS6sGZcGIDqh3MPcqHg1VD0byI7j0KotsFEb6zXHVWHa0hdyoMG3uzAaJF0WfRoWZ9xjUkIZzFsyNuQtbf1kBMVyIlPcIoeLtpSa9PvShD5UtnIihK+eWfsytbh858pszpKhvS1JTEJyObjGEVLdMfuSRR5YegV92JKN7QCJz5nTqDL8KDQHZmtUEDcY+GPqdmRc6vsZq85T0Sa+wXZnPZsJmQ2KX8Vbvayw/2kJuJ3B2XHd0g8hrxp0NtWHGvLkxsSHBRg/ZqLyne2FTRSWJzX9SM2zgIWkNOhAT8UjL3DdNMiY5Uif2bKWTKkHS2ZHncAO91TK3vRkIZmEEqYWHoBoEVYJOLyxp0XDETzUxgKsSi70wzaaQsklG4I6q4t2JBrTUJ6qWgSJ/9m8bRFJN5InKIk4LNdLmXsOVb2UhL9JB1dLLNDemGsuGtpTegkULy5cVDt58v7jzsYUNdeS+WGuN9eKIHV4Zw/uvHQsb9lUghY1IdFWktEyNfHRkpCT5nBYhuc0iUD+QyEXqIpiKRxjSmvTm1vyw/c7UAFtlDcysfroM2DQoUpgej3TUAeFoYPRw/poJJS6zN464tSI3WGUlkak08uAeefUYiE9leuc731kGmg4bID21JBc1jC+4p3P7fg41jHpSY8XQvo1TjUqvflnB50JGDli7oZI0JG5u8m5AhdKjzSL4bB7JhQym4BCbNDP9Zxume0RgTxqT6qQsd8hhZgUp6bb0ZZKeFKRaeCZx2UkbO2oK6U0qmv0gwU0H0tUtmhx77LFFeos3wW/q/HTi6qAyoRzo3H6pKHoH4Dd7Jro4/9QYDVTPwZ5OrkHJR54jzXgIgOZyXpUgX8q6M1coq2jr8rtZEafezXH7CBSJ3owk9w9+8IM45phjyuALESFJhRwqPuGenV8XKZfIuVNpSXfuFaxwUsf1zM4zczMZJDKpKU/SRa1h95R8LQlLvB0VV5K+2U01HdLn1yXd3GWeMx/AHbtqPldFdCtyPxOoaFLKAVbhkFJZwZ2FJI94VYB7vzXai64m9zLXKCIgx/ICoRDa/DNVobOJDZkH0tKvBrcieaqxcmKZJDf90XSXeWY6cI0aSwPJbaxhoL/SqyWc5hKxgdGqPNip8ewDN8xIWYMwXdvZveMykRsMhnLzkvsaNToCfiC2SQMzRJ2NZSZ3oiZ2jWeCrhyoLze5a9RY2VHPf9XotqjJXaPboiZ3jW6Lmtw1ui1qctfotqjJXaPboiZ3jW6Lmtw1ui1qctfotqjJXaPboiZ3jW6Lmtw1ui1qctfotqjJXaPboiZ3jW6Lmtw1ui1qctfotqjJXaPboiZ3jW6Lmtw1ui1qctfotqjJXaPboiZ3jW6Lmtw1uiki/h+red5FUps57QAAAABJRU5ErkJggg==;" vertex="1" parent="1">
          <mxGeometry x="510" y="350" width="183" height="128" as="geometry" />
        </mxCell>
        <mxCell id="io_0k-Pldrt4p_tzGIHd-13" style="edgeStyle=orthogonalEdgeStyle;rounded=0;orthogonalLoop=1;jettySize=auto;html=1;exitX=1;exitY=0.5;exitDx=0;exitDy=0;" edge="1" parent="1" source="io_0k-Pldrt4p_tzGIHd-11">
          <mxGeometry relative="1" as="geometry">
            <mxPoint x="790" y="638.75" as="targetPoint" />
          </mxGeometry>
        </mxCell>
        <mxCell id="io_0k-Pldrt4p_tzGIHd-11" value="" style="shape=image;verticalLabelPosition=bottom;labelBackgroundColor=default;verticalAlign=top;aspect=fixed;imageAspect=0;image=data:image/png,iVBORw0KGgoAAAANSUhEUgAAANMAAABiCAYAAADKkeYJAAAAAXNSR0IArs4c6QAAAARnQU1BAACxjwv8YQUAAAAJcEhZcwAADsMAAA7DAcdvqGQAACVYSURBVHhe7d0HmF5F1QfwQ3oCIYGEJEACgQCB0DuCqEgRBBULil3EihVsWJ9PeXzsHRVUBFEBwUZHICC9BaSFEkooKZQQSCM9+d7fZM/68rK77Momu5D7D5f3lilnzpw2c+/MrrG8hqhQocKLRo+m3woVKrxIVMpUoUInoVKmChU6CZUyVajQSaiUqUKFTkKlTBUqdBIqZapQoZNQKVOFCp2ESpkqVOgkVMpUoUInoVKmChU6CZUyVajQSaiUqUKFTkKlTBUqdBJaXIKxcOHCePTRR2P+/PmxxhprNN2tUGH1Ra9evWKDDTaItddeu+nO8/E8ZZo3b15MnDgxnnrqqejRo3JcFSrAsmXLon///jFu3LgYNmxY093n4nnKdP/998e9994bu+++ewwYMCBacFwVKqx2oEwTJkyI3r17xytf+cqmu8/F85TpnnvuialTp8YrXvGKWLJkSdPdroEQs2fPnuU3w03kapijUvQKqwrCvPvuuy+efvrpeM1rXtN097loNY7rSkGlOCwAhZk6bWrccccdcfOEm2PCTRNi4p0TY9r06bFs+bKSpqZmTbkqVFi5II9tzSG06pn22GOPWLp0adPdVQfjNEQLN2+6eUJMemhSzHh6RixYuDCW1/7179c/hg4eEmM3HRu77rxLjNl0THOeChVWFngmw5/Zs2fHq1/96qa7z0W3UiZKsWjRovjXv/4V46++LGKtHjF6y01i/Y03iIGDBnJZMfeZ2TH1oanx8D2TI+YtjwNes3/st+9+0adPn0qhKqw0tEeZus10HUUyFX/aGafHBVf9K8bsvkUcePjrY9s9to+hI4aWkK5HzzVi8NB1YvtX7BgHHH5QbLLbZnHe5efHGWeeUZSwLRdcj5bStem+a8/yuV+0OvJ+/fOXE17u7etsdKu570vGXxrX3Xpd7HbQHjFu162jZ++esWzJ0nh8yuNxxfmXx19PPDMuOO28uH/ipKJc2+6+Xey0365xzS3XxvjLxjeV0jY6KhQct/dujsScOXPimWeeec4EjXLRZMLk5YCW+PRiFIrxYd1fzkrZLcI8AnjvvffECSf/JsbssUVsueO4Wt1LapreIybdcW+c+pOT44G7HqgJa69YvHhxbLPbdvGFHx1bQjudc/ctE2PyDffHUR8+KjbffPM2ZyEnTZoUs2bNih122KHk1/wpU6bE5MmTY5dddinvEhLKxoPzzjuv0Pi6172uTI9edtllMWjQoNh///1LvpkzZza/1PMeYt11131JzzQS/Iceeij+85//FMORCrDzzjvHlltuWc47AvmFR8pab731mvn+UsJLIszD6GVLl8WVV18VfYf0j03HjaldLy0dOnf2nDj71H/GxAl3xiZjN423HHlY7P+2A2PEhiO4jNIhjk233ix6DO4V11x3zYpxUwvGTz2O8ePHxx/+8IcSUlIQ9RCaX/3qV4VRGb7xMv369StMvOuuu4oSepF96qmnljQYOn369Pjxj38cF1xwQVx77bXxve99L37xi1+U6VNlK0N+wuMc5HXdt2/fZmMAfqV13yF9PlNW3pdHGW3dr6/DoVzIduV9+RNJr3zeL958883xwx/+MP7973/HTTfdFNdff3089thjhd+ZThnOs15orCPbf+utt8Zvf/vb4tHxFerpry8ny8i8+TyRvKqvtzug5//V0HReMGPGjGJBRo4cuUqsB6ZMmzotLr1yfIzcZqMYMWr94g0watLt98R5fzw71ho8MD7ytY/HPofuG1vvvE1sstUmMWDNNWtcXRGG9enbJxYtXBSPPTgtxm4+tnzy0Uh7CuZ1110Xjz/+ePEyhAYoyy233BKvf/3rS17jr6uuuiouueSSwo8HHnigeETnvNIWW2xRDvfk+9znPhcf//jHY80aTWeddVZstdVWsf766xclJYBXX311PPLII7HxxhsXL2aC5YorriiCNXz48CIwjMCdd95ZFJP3e/bZZ8szQvTEE08UWgi2PN7Au8+jSq/8hx9+uHjEtdZaq3zFQrkvvvjiIsR4IQ++3njjjSWPCERbeVi81kZeltG45pprynPpv/vd78a73vWuOOigg2L06NHF6/tCBj033HBDcxvQg8ee33777c3tUAY+8+7oRwujhT94k4ZIe9GIF557HZK8Q7NyeX4QcuPtggULVlkUgEeMqbrxoSV0uWojcsrUKTF38bxYb4P1CvNBx0ydPCXmzZkXozYdFWPGbRZLFy+Nnr16xpBhQ2ONHv91Pzzb8JHDY9aC2TFt2rTo2aP1cUt2uA4T7jnyG0S06BiC8stf/jIefPDBZqGhYJip03VyWmnWNS3shhtuWIyDtISMl+K5KBwloownnHBCnHvuueXbx9/97ndx5plnljZT3u9///tFULWBN6CsTz75ZKGFYjj/y1/+En/729+KgrmfAk2A0aR+ynrKKaeU+oRrd999d6FJW372s58VpSHYPKm60H7llVfGN7/5zVI2xdTOFHzl+3XtPtoYB/T8+c9/LnmSt4yNdqjTcIFCyctAy8sAMGba//Of/zwuvfTSQg9eXXTRRYV+dLv+yU9+UpSKMuEVj09p0fyb3/ymlK/Pugu6XpnWqIVzc+bG4uVLYs2114rly/5rZSgSiz1w8NpFYHWmo3EK3D3ea+HSxaWsekWrRyqMEOZTn/pUHHnkkfGhD30ojj/++OawT8f/9a9/jb322iu+8IUvlDSsJevq3qabbhpveMMb4oADDijpeQGWnEcSPq6zzjoxZsyYIrw6nQfjud761rcWgVf3Bz/4wfja174WhxxySLHM7p1xxhllvKfOT3/60/H2t7+9eBnCKd/b3va2QisaCCCLzZPtt99+hcZPfvKTsdlmm5V6CTuP8573vCc+85nPxMEHH1wsKkU0VvzSl75UaCK0BLhead797ncX3vCuvNPnP//5Uj66eK3BgwcXr649b3rTm2L77bcvXoexoDCUa9ttt21ux6GHHlo8yjbbbFN4wctpiwiBQn3iE5+Ir371q+WLm3/+85/lHnrwDg3HHHNMfPjDH465c+cWw+EZfmun8anr7oKuV+ua3LPAmNKr94rYPtGjJqxgDEURWoO8LNby5ctiyeLWJx+ko4iETlj22c9+tggb5aAwQMAIBqEdMmRIEfCtt966WG+TE9INHDiwhHQUkzKx8ueff34RYOUpX5vk33HHHYswyccCC2Xck3annXYq5bLePM2+++4bI0aMKOGXPDwoASbkvBtl8EmLOik3uni2k046qXg0UI9yCSUjceGFFxZB1CaWfe+9946hQ4cWo0AYhXfq4RFcm2BAm2ue9qMf/WhRqI985CPlmhALHXm+3//+90XAs2ye0TkFF/opR3u00YE295zz+owOxWOAdt1116LwvJa+NlFhwgO/0OUwbsMnv5QPfxsNa1ei65WpJuDGPDzU4oWLm27Wbtf+DRoyuKZgveOpJ2fGs/OeLR6neJcmJUu4t3DBwlKGsl4IOkpnvOpVryoHoSQ8oCyHTsoDUhEbf3UopRSSsLBmQeX3nPA4CKvrDCOz3CyHh/NMuJeHZ6AsyiVOdxA6ltqHyMcee2zxDryKsQ0vpy7ewDPj3rPPPjt+9KMflZBMPcqtLx/QoB4GwrnnoN7ddtutfNipXl6J0p588slFCT72sY8VD4V3jEeGXFmHQ3l55DNH8ijTNdKTykd5GTH9JbQUUlJcE0BZRndBlyvTshozdFK/Hn1jzqw5zR1S06UYvcXoGDxkUDx87+S48bLry9ho1lPPxF0T7iznmAmUbM7Ts6N/7/7F8tV3TCPqO5rg5ZEdStEoiDEMS8mCGuzqVJAuO9CvQ2cTRJ2vjLxff07gWGKW1ziA8OUAncDyFsY0vBCwwIRfaCT/qFGjipIILyk/2oSmb37zm+Mb3/hGbLLJJkXQjUt417Fjx5YQ6b3vfW8ZNylDHcZGBu7uoYMnQhtaHQnpkzdo9QvGmHjBaGy00UZlupinlN6kAt4JHSk4aIf8eMRDGnfqN+3KFQroEfbxtrxf9oUyQd2UV0Rw4oknFs9vMqee3u6A58ZVXQAMGTVyVAzqOzCeePSxGLbBilknjNxw9MjY68C94+xT/hFn/PLPcdMVN8bcmsKtvU4tnNr6cyUslI5Hmv7I9Fh3zcGx4cgVndEaTMvWv0sCIWJaZeOUd77znWWiQIiVzyg84XZO+KT165oBqO98cM8z+QFN3mOxsLyYMImFpSDbbbddvP/97y/T80cffXSzUBm7CJkIHe9C0QkWpeSZeB0KpS7jFXQ7F9oZU5npIsxCVmOWww8/vAzkhbgUgIIqHxiCer64Rn8aLNBGYS+P9/Wvf72EYOqlQOol7B/4wAfKFDhvjdeU/KijjioGQH0mJ7SXRzPmO+6444oBZETwQFgoVMQD/M16tV147NUGT+l5W/3cFejyl7Y6y3H6aafHrQ/fHnsf+uroW+vU5TUG8jhPPzEzzv3TOXH9+GtrijS3MHj3fXePDx370ehZO5d3/rz5cfnfxsde4/aIw95+WLMVbQk8AwEkECvGWctLR7LmrB0hYklZbdbb2IXQECyKJr9rIRAr7ZoAEKS0lGhibQ2iCRphUQ+BIyjGHOojaISMYMhLeR34TmEMwNEjD8EzJkGDZ2gw3hH6UHJjIN7Iudm49Bi8EauODh5F/3qmHJMHaAft4O20F1/Qhy8UAA0pJn6Nx/BHKIYW9FJ+PHKufGM7beKBki78QBslo9yMCV7wWNlez9DtHR7a8RnkN4NnGp0Coqutfu5skDvt4nG79YeuhAyjf3Xir2OdLYbE9nvt2CyYni1asChmzngqnpnxTPQb0C+GjlgvBqw1YIXVrP1321X/iVkPPB2f+NhRJdRoi26dokwKk3Dtvs7BDuViHhqcO5w73Fe+88yX1/XIMhqfSe+ZeuTP55k+u8N10iNP0ucX5EsaoT69+66lkV4a5411+HUfkq4UUNfoyzLroYx61NfdWIfr5LX7yvXMPeV77rq+riwjaeP9eNu///3vZbLIjCBkHasC6HkhZer6CYgadDbLdtD+B8ZDNz8Yk269J3r0XPExKYb16dcnRoxcP8busFWMHrtJ+YLcc57r7gkT4+FbJ8chBx1crGx2QGvwvF6RQP3uZef4dS2tDs7zvJ8CnPnyuh6NaRNZZtKRzzO9Z1ln0iMtr5L1ZT73Wkqf15lefmisI+9D0pVI+rLMemT+POrTNdbhPOGa90O3dFlnY11ZBvoplkiCRzNePPDAA5vloruh2yzBwDTMG3/p+Ljo8oti2Obrx1a71UKgtcTxTXF7LU2Ni+V03ux5MfGGO2Lmg0/Ggfse2Bz7d0cmV3jxSC9GRrqij9vjmbqNMkG6fLNcF158UTw5Z0aM2mKjGD56RAwYtGZNU2pKVBs3PTZ5eky9f0oMHzg0Dj7okNhxpx1L/kqRXr4gG9BVffySUybANMdTtQHwxLvuqh0TY/Kjk+OZ2mAf1h28ToweNTq2GbdNeZE3ZOiKF3eVIlVYmXhJKlMiB6pmehbMX1Bia7AMo1///mUGjOvvShorrD54yUxAtARKQplMOQ8bPqy8P3Ks1zRNnWkqVOguaFWZCHJXH8K3nBEyA+RwTokytKuO6liVR1t4XpjnpaFP3r3xN42ZA78KFVZXUBEvsr2I9wFvh8ZMPl/xZp4XqJSpwuqOVCZrsUREHVImXyPsueee1ZikQoUmmICgGz6x6vLZvK5+T7AqsTq1tRFd1faVXW+3ms3jHh0vhHzT3d3QEbra29aVCfTmkd/ZtZd+6TqSHrKuREfzNyJpaA8oEH53tfFaJcqkM2m19TrW27TGJMzwHZZZu+4EdBl8GkO2hRQea3Osh+LZX4xA/S9QH+vpK3Nfkvgq29fvvsT2rD30mEHVD+2NTPSnflWX/Se031Ah3w3+L0gaXsgoqVvbrHQWVZG1rsJK3Z1Iw3y+77j88svLWhTrcHxWjwkGddwn6GTC+sc//rGsCjUBAmhQTqaVrz10KU96+eSXx9FYb5YlvXT5PPO478WxpeE62HICHex+SzT5tazasglt0PYsW/pG+luiEZIWzx0tCZVyG6E+CwB1q70gHFbg2jfBOztLF5Sb9DfWLT+lsA+GZRGWblCqpNMvJJ3Koqw2jrEKlhJRYoaTDFnWIm3WVd9+54563mgnGix0tC+GpSXWMqVhqucXuKd/yJfl71Yju6esTAtZJ3jmfmNb5Eu+e+46+e7eC+1O1GFl6tWjpiA9a4Q07QBkpWxLQJT1NzYLsW7F/gdmQ8Sb1qzkSk/3EWohm3UylAnROt59XzpY4MbSmrZnrTDNs9bgGSZY70MwrI3RQZQYLVbOmrHEzKyHZVUPq64j5fFM/dbm2CyFsrvWNunRxBqyjGjKDpbPKlRtUh/Fwlcboyjf+ib04K/2o8dzryPcRzveERJfS6MV7fiWfUK4eHB16vSENqlHmV/5ylfKpir2hLDu6ayzzioraykUmtFum7NcJ+VluDIZPUsetAnQZBytXPTglzaoVzk//elPy4rkL3/5y3HYYYeVP7mCXvmtBmCE9N1tt91WBvDZTm3ONWHKxlN5tNG+Guecc04zDWjDF7wgN+jBD3Sjw9onPLfAUd8l7+yShF59ksqiD8gFmlxnW+RhyNFIBkQj+hCU0anK5OquJx+Jc++7IW5+/IHo16tPDOk/cMXDOiCQstiuyWIuQo2ROtouqMpnxVgwTPRrHZK6rR4lgBrMKmKSjmV5MMYKUg234tNvI9wj9JZOn3rqqSW8dKBJx1j2rCyKwINop04gWLaeIoQYaVcgdFjE5h7rrrN1Prrkt0uQfGjCZN8Kqt9WXhTQhiC8hNWthBYPCCqFZHGFgjwe+tRBQJSBT1bi2q1HPYSCR9SxBErH4hths/iufoWsvKkklrRbgGghodWtvAXF3meffYowya98m6JQBnXocyGTPqEElAu9thrj5bSBgdRflFJdv/71r+N973tf88Y0BBxdlsToC23GA8KLV4TVqlk8zT5SJgXKPtd/uV8ehUUbr/ePf/yj0GCDGbRbwo4fyqFcBN1K3wz79LH2SecdER6jRb9kverUFuXaPs09MqAt+gNP2qNM7RozEdlatB23Pf5gnHL7JfHEs7PiiXlPx8m3XRx3PPlQWTZeDxXb/ok1tOmGfQgQpCOBlXnta19blk/b6kl6VlNIoBOEgpY/C5Moge2pbI9l5x+rQ0877bRiQeRrBGEifIRUB3zxi18sG5DIRykJrY63FZWOFkqwSJhEWFgw22ZZO2OjSIaAQhFKm6+giyJjsnM0WYqOfhaeMul0Xhh0gHKtdrW9lk4l1DrrT3/6U+kYu//Y/oqgMT7aRbgppO3AbPFFEHIMow40q6e1cQ1+E0RtdGgX3vL+rinDW97yltJW/CBA6uc10IpOz9/4xjeWtBRQf1mCrlxCTdHQICTi8dzPg9LrCzwh6HhmkxcbfVJiyswj6Q+btegP4Rwl0D7Kz+AwCOhIT4cfaMYTXp1B03f4Rb7kxTfP0G67MUaRAQWGDu95bHxniOz6hJ+MJeXDa+3U39rRXrRPmWoELli6qOaRboydRmwWn931TXH0rofG2CGj4rz7b4xFS5eUNJmWJWEZvavCKBYaYSycTvar4WeeeWZRDI2nAAjnclkmnaljdZQ8LKOtpTBfB+qkliBtunZ7z+WWVryP8EDIk3si2P+NcOlUdFuybbst6dGNTvWggzCy8MYRrik575XbXaHJAequV3SCRhgty2YohKraQVHBeEb4QjhZU2AVvZ6wNRcjUx/i4ZN2UORcEt8eoFlabdU2fCLoBJjF1gegfbwLnrHYBJnxInSMD7ql5aUps7Zm2Y0QoRBUSoF3+IvP2i8PxRX645E9Mgg+ZeeF8Vz96KCYjDAlMRSw6lbfMdjCMc+1Cw14xcA59LP+FPrxiIwGmrUB39XlXCQkP17npjXksCNop2eqhU41AqbPmxm7bLBFDOjdt3b0i52Gj4lpc56KJctqg8OmtJAWUeMRqPN1HgHBQNaXq8Uwi/q4fHkIE2Y4NFhewmxwq0MopM00lIOBntcj6yKs0mCqchzoYcHQofPdY5XUpW6/nlFe14BW5SVNDjC2QhMBo5jGCNqq3kagiTACGtStHAbHr+fO0UPhKLFzwsESJ/1ZNzhPQZOuNShbfdJoE4XBc/d4ReEXQSM8BJZlrq9L2/GAx2I0WGz9JVLQFmnd0xcMUtKiXufq8UwZeIsG9/RL9h/eqC+fgXod4FnSwRsaBlBKwwWeFs+zvxLqZgzcR6M+VUbKgGuyZrih3TwYfkqLHs+lTRrai3YpE9b2rjVm1MChce2Uu2LOovkxe9GzccO0e2PjtYdFrxoTsqs1XkPEy7yTDtIAVpAlw0CeyGYcXC1hzEZ7hmmEK88JLqvC1YvJdYTyWoK6MZJ1YYV4IoxRFhgMs/zokJa7x0SW2HVLcF8nKwNdaBK6scx2FrJvHUVqSbkT9WU7lw4tBJtgCBdt8ogfLGm9ILUE+Sky694WLwgEunhMY1QWmOLjNd4IpexoJAoglFkfHspL4LRdfzE89l4QbbiPRumFqQ5Crh79ir4c6xmT6l/XDJy+pNQ57mitjWhQj/Y5R7Nxonz4hHY0tybw9eXmub5GD/m0y60hyBFHHFFCT8reUeVpROtmrQ7+fqzJhkM23y1Om/jv+OENf69RGLXQb2G8e+t9ok/PXs+Z1SNwrJ1Znm9961slFDFgJDwapvMw/wc/+EHppPywFrO5fS7cXnAarPEstEGukI0AYXJrwHQhgxDJdl3KxiTloslfdrCntvq4fOM54ZvBcVojwoBO18rDaCEaS85TCtWEKga6Bs2UktEA+QhPWkv5nWeHKp+AGIOxrqeffnoZCGu7+/Y4oFBpYFoC/mqXvPYLN6apFwR1CX9yezAWmPLZXov3Y2C0B+2UTYgjZNIudRJYBsJg3ESEfpNff1EWfMMzNKqbUNqmzJjI2Eg7lEfoM1Q1hqUM2sqbMaLGOfW8SV755XX1uz40jnnHO95RFMikzHe+850iA/pMP4B82Xf1vMv+0Jf4xviZGMM3faDtjK/yoZ6ejqLds3lCveFrDq55ouGxaNniGDpgYByy2e6x+TobNqX4L+TTSIfyMIViYKpy3dfJ4mO/BpXCG1ZaAwk6pnDBFMg9NLlnnKMcwqDD02vkAbyX8IXQqIMyuBZOYpx7gCYTIQQ5PRphkB/j0SmUQL9nLBtQTPG90FMHGgeI+9XB6jEeOZuFRsaDgKqDMDpHP+Hw3PhROdopVlcGHkiDP9mueqBP+erRzgTeM1B4RwnMVEkjlPGXLLRNGjTIR5i0hxIL39SHfu3FW20m+IQbnZRIhKC/sk36FN0EWD+hX0hurCw/nkonv0kh+/fJo188U7a60E0G1J08dx+PpJNXGv2Hp+TG2FF+Su05vsnLoCbv3PMMv0QE6hBloNUz7Xdf2epUtn6ql390vNBsXoe/zfN+Kd8xGSs5WoJGYCCLgBAdpyrXnhEG1kUaR/0zwi2P52jwnMUA5XimURjS6KXkx3zMyDLU5by+LMIrTZ4njWhIC+daHocyXLsvDUiH7qRJXe65BunkcziXtv5aWejJNmh30qMM6bPdjVBG5pWuHp4pK+G5Nigr00qTbVGXa/Vm29xTvnvyZfvccygn25TpQb9kXs/lV7b8niVdypQmywXpHFluluNcXvRK30izslxnX6kj70PSVt82ZapX2uRDY/31QAevyvh02YeuCG0kLNHWs0ZIC9Jn401zCh81FDCQIrF8rIfrluqoL+vFoiNtaA2dSU9H0RH625O2rTSdwSvoinK6hTKtLFAUMbdZJNYKNIXV4eJzlqhChc7Ay1qZgBKxLvXQnGxSpUwVOguUyYSHmeAOKZOZGH+ZobsrU4UKqwqUyYt1kxbtViba542+MCkHfRUqrM6gIoYPJizMCHbIMxmLmLatPFOFCivAM3kJbeKrQ8rkTbY33ZUyVaiwApSJbviy5mU5AdHZyJA2WdJZU7DtRWP99WjrWYWVj/bM5rXr27zVAYSV8cgXffUv/VYV1NeaAaunrUL3RKVMNaTV9w2Yb95MufsMyrIP77G8FV+ZUJ+vOXyv6APUfG9WD19uW9BGqZLeCt0LK02ZCCDX6PDZjtmQFAK/+cznHH6BELmWPu8lshzP64W7PXnqn6kbLVmW/MrzOsAn/rl8w3djvq6gUK2FXa0JtTIbaVFH0u23nmbl8IQ+JvW9X5brmW/p0OuDU8qeX3VU6H7o8B4QPnjt0SxILXeqZ76utnzCilNCINa02IoQGcQZlxEeXyD74tpHpdJb6+RzfQKZa28IkCl7i7nMNBJGU/eETRnKl0e98vhFu/cC8oh1TfN7ZnqTYFr9anaGsPqw0xfh0lmS4J7PkiwX8JrAB6A+iERHQnnKIuiN0A6TOD64RD9QVh96+vAUj7OdaM106PDBpQ9FwRIWbfOi0BIWMDGk3dXYadVC/3TqHhArVKcmqLX/L19jeVGslhSKgFm27g/65hJiwkoIfFlNiCyus3TZUoH80vr4448vwkPILRn3JTAls1fAySefXBSQUFo24EtfimpphmUZnhFQCuPLX0qqfmnUQSB9Pe0Tft/0EWwKSpAJOK9E2X1ZLZRKJbZ1lXwYmCGWXx5LfV4hpMcB+Qi+5RmeKZ+3s78E5fMlc307LafWTu3XRmWpz3ZZ8qAfnfYnwAuLIytlWvVojzK1O8wjRIuXLY1LJt8SX7z8t3HMpSfEOfddHYuWLirP6uFaxdb5WOJg1xpLFmwfxZMgyNjAp+6WXktjfwaKd+SRR5b0hMu+CgTTqtDcz8GeEayzxlEAwuZP3vtT+QTXIjiKQhiFTNIfc8wxZdmAATzFJORHH3102R/A3hDS8aQ+5QeCSmG8oCPc6mgMr7xvoByNkMbyBzTwaq55U+2lJJa6a1O2k/JrJ77whJQef6xV4qXsG2F/CPcoZSOvK3QftEuZdB8BG//QrXHS7efGrIUPx5xFU+Kk284tCrW8eZ3tf0HYCa0pdkJqIZxQz4AeeA9rXqwtsY6Et5LeAjXreqwRkpZSECSrWgmpg1BSgFxpymrzIAbxPJdfaYSTdvkR1hmfCNXcN5gnrLyZ9TYUR6gptKu3+MZNQj6KIQ14rm3WVdmIpNFLOOfpGA/1UABeFg9YtGynz7WynRSJMvPolFd0QIGtMbKeS1nW7VQeqXujXcpk96EFSxbHhQ/cGOuv1SO2HTYsdhg+Ioav2aso2JKaoBlHNYIgAkHMsQXvQCCEdu65zoPAs7y8AMHxK6QjvMZarvNQpjwEnjIqywpV+7ZRECtKeR9l8mzHHXdcEVoezEI5wvrtb3+7KJVylE8xG72PQx31950bs1GaRqBNWYwIBTE7SOkpjzarw/NsJ7rxAw0JbctyPJNWO/ChQvdFu3vH0vU5i54tK2x71HyVjAP79Y35Sxa1uBElITCAJrSsLYtMcBp3fJGOMrDawh/eiGAZTwn1crMVYwwgWEIhCsOyEzhh4hFHHFEmD6zCVQ/vZDWoISGlMm7jwTyzRNnydQqXO9QYy6g7lYbg8hBCOePHeq/g1zjGuCzvNYLHtTzb0m9eDy0UUDu9GFcXpdFObVE/BVKe0M+hfPdMaOBfo7JX6F5o9wQEzzN13tMxaeb0WLtP75i9aH7cO2N27Dlyh9hjg62eMw1BeYRW1vyb1RLu2CtOSOMg2KadLYcmcOoRgkknJLI5IyHjZSiHkM5eayy85zyMUIkA5vsX5Qn1hJLGYu7ZdwAd0vAiBu/GVMoynkEfD+KNNjopc+5+RHkosBlBy9vlJ9iEmRLY8srkgfa0FOrxZjwTGiitTTt4F4ojdNUONGqTdlqDZZJG+CusU5cxJj7kLKaQr5qA6Bowrp02m9erFuqNHDg0ps6ZFbc8NqX2Oz/23HDneNe418bafQc8Z9SkYkIMBMm1SQPhFSFzmFAgHDwFwaEY1vkDgZOWImVakwE8FM9GkSihe4RQGUAQeTLPKIRygXLZt035lEE5QlDKbFzCCzAAFEyZmJUvUV0bHyXSM/Caxl9m2FryFsrzzD4Ixov2TkAPpZQPb7XTxIh28s7Gg9rqPhq0g+LaX8GYkXeTv/JOqx7tUaYOfZvHO81cMDemzJ5R80RrxEaD1otBNUVqDPMIsh1ghEK5OxGoSpkIY10JdQo8AXHPtYOC5PNMLxxzngoB0inXM/WCc+mlq38XpG7nfh3S+1WH8oyfeEiKZ9qaMpkkMeOX9SWUj5aWZvQSFEod6KnPj4b6dnquDUmPQ9nyy+fXIb20FVY99Henr7Q1GWGfPFhCIGpjqUao2F7RQifTuixtS2W1BkrQQFZBa/eho3ka77tmdQgsr4VeiuLcs5WB1mirR3vSVFj5aI8ydXh6iPLYDtnRkiIBa2pSwL5pwpeOKBK0JjxtCVVH8zTed21Mg17gCUyV8xArC221J9GeNBW6B54nKTqPdWYRX8xBk4UwGZa9FI5EXqcg16epjtX3gLaM2/PCPGMFM0je2VQ7/FSosAJCfl/0mJAyhm4Jz1MmIRmF8o6orf2zK1RYXUBFRFjeHdplNye6GvE8ZQJhnqnhjo51KlR4uYJTMYY2fGkNLSpThQoVOo6VN1VVocJqhkqZKlToJFTKVKFCJ6FSpgoVOgmVMlWo0EmolKlChU5CpUwVKnQSKmWqUKGTUClThQqdhEqZKlToJFTKVKFCJ6FSpgoVOgmVMlWo0CmI+H+VEF3kFuJH0gAAAABJRU5ErkJggg==;" vertex="1" parent="1">
          <mxGeometry x="450" y="590" width="211" height="98" as="geometry" />
        </mxCell>
      </root>
    </mxGraphModel>
  </diagram>
</mxfile>
